<svg
  width="286"
  height="64"
  viewBox="0 0 286 64"
  fill="none"
  xmlns="http://www.w3.org/2000/svg"
>
  <style>
    .fill {
      fill: #000;
    }
    .stroke {
      stroke: #000;
    }
    @media (prefers-color-scheme: dark) {
      .fill {
      fill: #fff;
    }
    .stroke {
      stroke: #fff;
    }
    }
  </style>
  <path
    d="M32.5 20.75V15.75C32.5 15.4185 32.6317 15.1005 32.8661 14.8661C33.1005 14.6317 33.4185 14.5 33.75 14.5C34.0815 14.5 34.3995 14.6317 34.6339 14.8661C34.8683 15.1005 35 15.4185 35 15.75V20.75C35 21.0815 34.8683 21.3995 34.6339 21.6339C34.3995 21.8683 34.0815 22 33.75 22C33.4185 22 33.1005 21.8683 32.8661 21.6339C32.6317 21.3995 32.5 21.0815 32.5 20.75ZM38.75 22C39.0815 22 39.3995 21.8683 39.6339 21.6339C39.8683 21.3995 40 21.0815 40 20.75V15.75C40 15.4185 39.8683 15.1005 39.6339 14.8661C39.3995 14.6317 39.0815 14.5 38.75 14.5C38.4185 14.5 38.1005 14.6317 37.8661 14.8661C37.6317 15.1005 37.5 15.4185 37.5 15.75V20.75C37.5 21.0815 37.6317 21.3995 37.8661 21.6339C38.1005 21.8683 38.4185 22 38.75 22ZM43.75 22C44.0815 22 44.3995 21.8683 44.6339 21.6339C44.8683 21.3995 45 21.0815 45 20.75V15.75C45 15.4185 44.8683 15.1005 44.6339 14.8661C44.3995 14.6317 44.0815 14.5 43.75 14.5C43.4185 14.5 43.1005 14.6317 42.8661 14.8661C42.6317 15.1005 42.5 15.4185 42.5 15.75V20.75C42.5 21.0815 42.6317 21.3995 42.8661 21.6339C43.1005 21.8683 43.4185 22 43.75 22ZM58.75 30.75V32C58.7495 33.5899 58.1431 35.1199 57.0542 36.2784C55.9654 37.437 54.4759 38.137 52.8891 38.2359C52.0364 40.6478 50.5847 42.8033 48.6703 44.5H52.5C52.8315 44.5 53.1495 44.6317 53.3839 44.8661C53.6183 45.1005 53.75 45.4185 53.75 45.75C53.75 46.0815 53.6183 46.3995 53.3839 46.6339C53.1495 46.8683 52.8315 47 52.5 47H25C24.6685 47 24.3505 46.8683 24.1161 46.6339C23.8817 46.3995 23.75 46.0815 23.75 45.75C23.75 45.4185 23.8817 45.1005 24.1161 44.8661C24.3505 44.6317 24.6685 44.5 25 44.5H28.8344C27.2395 43.091 25.9617 41.3597 25.0853 39.4205C24.2088 37.4812 23.7537 35.3781 23.75 33.25V25.75C23.75 25.4185 23.8817 25.1005 24.1161 24.8661C24.3505 24.6317 24.6685 24.5 25 24.5H52.5C54.1576 24.5 55.7473 25.1585 56.9194 26.3306C58.0915 27.5027 58.75 29.0924 58.75 30.75ZM51.25 27H26.25V33.25C26.2548 35.597 26.9181 37.8956 28.1644 39.8843C29.4107 41.8731 31.19 43.4723 33.3 44.5H44.2C46.31 43.4723 48.0893 41.8731 49.3356 39.8843C50.5819 37.8956 51.2452 35.597 51.25 33.25V27ZM56.25 30.75C56.2498 29.9747 56.0092 29.2186 55.5615 28.5856C55.1138 27.9527 54.4809 27.4741 53.75 27.2156V33.25C53.7491 34.035 53.6864 34.8186 53.5625 35.5938C54.3381 35.3646 55.0188 34.8909 55.5031 34.2432C55.9875 33.5956 56.2494 32.8087 56.25 32V30.75Z"
    class="fill"
  />
  <path
    d="M76.7216 40.5V23.0455H83.4034C84.6648 23.0455 85.7131 23.2443 86.5483 23.642C87.3892 24.0341 88.017 24.571 88.4318 25.2528C88.8523 25.9347 89.0625 26.7074 89.0625 27.571C89.0625 28.2812 88.9261 28.8892 88.6534 29.3949C88.3807 29.8949 88.0142 30.3011 87.554 30.6136C87.0938 30.9261 86.5795 31.1506 86.0114 31.2869V31.4574C86.6307 31.4915 87.2244 31.6818 87.7926 32.0284C88.3665 32.3693 88.8352 32.8523 89.1989 33.4773C89.5625 34.1023 89.7443 34.858 89.7443 35.7443C89.7443 36.6477 89.5256 37.4602 89.0881 38.1818C88.6506 38.8977 87.9915 39.4631 87.1108 39.8778C86.2301 40.2926 85.1222 40.5 83.7869 40.5H76.7216ZM79.8835 37.858H83.2841C84.4318 37.858 85.2585 37.6392 85.7642 37.2017C86.2756 36.7585 86.5312 36.1903 86.5312 35.4972C86.5312 34.9801 86.4034 34.5142 86.1477 34.0994C85.892 33.679 85.5284 33.3494 85.0568 33.1108C84.5852 32.8665 84.0227 32.7443 83.3693 32.7443H79.8835V37.858ZM79.8835 30.4688H83.0114C83.5568 30.4688 84.0483 30.3693 84.4858 30.1705C84.9233 29.9659 85.267 29.679 85.517 29.3097C85.7727 28.9347 85.9006 28.4915 85.9006 27.9801C85.9006 27.304 85.6619 26.7472 85.1847 26.3097C84.7131 25.8722 84.0114 25.6534 83.0795 25.6534H79.8835V30.4688ZM100.702 34.9943V27.4091H103.788V40.5H100.796V38.1733H100.66C100.364 38.9062 99.8786 39.5057 99.2024 39.9716C98.532 40.4375 97.7053 40.6705 96.7223 40.6705C95.8643 40.6705 95.1058 40.4801 94.4467 40.0994C93.7933 39.7131 93.282 39.1534 92.9126 38.4205C92.5433 37.6818 92.3587 36.7898 92.3587 35.7443V27.4091H95.4439V35.267C95.4439 36.0966 95.6712 36.7557 96.1257 37.2443C96.5803 37.733 97.1768 37.9773 97.9155 37.9773C98.37 37.9773 98.8104 37.8665 99.2365 37.6449C99.6626 37.4233 100.012 37.0938 100.285 36.6562C100.563 36.2131 100.702 35.6591 100.702 34.9943ZM108.878 45.4091C108.457 45.4091 108.068 45.375 107.71 45.3068C107.358 45.2443 107.077 45.1705 106.866 45.0852L107.582 42.6818C108.031 42.8125 108.432 42.875 108.784 42.8693C109.136 42.8636 109.446 42.7528 109.713 42.5369C109.986 42.3267 110.216 41.9744 110.403 41.4801L110.668 40.7727L105.92 27.4091L109.193 27.4091L112.21 37.2955H112.347L115.372 27.4091H118.653L113.412 42.0852C113.168 42.7784 112.844 43.3722 112.44 43.8665C112.037 44.3665 111.543 44.7472 110.957 45.0085C110.378 45.2756 109.685 45.4091 108.878 45.4091ZM126.741 40.5V27.4091H129.69V29.6335H129.844C130.116 28.8835 130.568 28.2983 131.199 27.8778C131.83 27.4517 132.582 27.2386 133.457 27.2386C134.344 27.2386 135.091 27.4545 135.699 27.8864C136.313 28.3125 136.744 28.8949 136.994 29.6335H137.131C137.42 28.9062 137.909 28.3267 138.597 27.8949C139.29 27.4574 140.111 27.2386 141.06 27.2386C142.264 27.2386 143.247 27.6193 144.009 28.3807C144.77 29.142 145.151 30.2528 145.151 31.7131V40.5H142.057V32.1903C142.057 31.3778 141.841 30.7841 141.409 30.4091C140.977 30.0284 140.449 29.8381 139.824 29.8381C139.08 29.8381 138.497 30.071 138.077 30.5369C137.662 30.9972 137.455 31.5966 137.455 32.3352V40.5H134.429V32.0625C134.429 31.3864 134.224 30.8466 133.815 30.4432C133.412 30.0398 132.884 29.8381 132.23 29.8381C131.787 29.8381 131.384 29.9517 131.02 30.179C130.656 30.4006 130.366 30.7159 130.151 31.125C129.935 31.5284 129.827 32 129.827 32.5398V40.5H126.741ZM154.076 40.7557C152.763 40.7557 151.63 40.483 150.675 39.9375C149.727 39.3864 148.996 38.608 148.485 37.6023C147.974 36.5909 147.718 35.4006 147.718 34.0313C147.718 32.6847 147.974 31.5028 148.485 30.4858C149.002 29.4631 149.724 28.6676 150.65 28.0994C151.576 27.5256 152.664 27.2386 153.914 27.2386C154.721 27.2386 155.482 27.3693 156.198 27.6307C156.92 27.8864 157.556 28.2841 158.107 28.8239C158.664 29.3636 159.102 30.0511 159.42 30.8864C159.738 31.7159 159.897 32.7045 159.897 33.8523V34.7983H149.167V32.7188H156.94C156.934 32.1278 156.806 31.6023 156.556 31.142C156.306 30.6761 155.957 30.3097 155.508 30.0426C155.065 29.7756 154.548 29.642 153.957 29.642C153.326 29.642 152.772 29.7955 152.295 30.1023C151.817 30.4034 151.445 30.8011 151.178 31.2955C150.917 31.7841 150.783 32.321 150.778 32.9063V34.7216C150.778 35.483 150.917 36.1364 151.195 36.6818C151.474 37.2216 151.863 37.6364 152.363 37.9261C152.863 38.2102 153.448 38.3523 154.119 38.3523C154.567 38.3523 154.974 38.2898 155.337 38.1648C155.701 38.0341 156.016 37.8438 156.283 37.5938C156.55 37.3438 156.752 37.0341 156.888 36.6648L159.769 36.9886C159.587 37.75 159.241 38.4148 158.729 38.983C158.224 39.5455 157.576 39.983 156.786 40.2955C155.996 40.6023 155.093 40.7557 154.076 40.7557ZM172.227 40.7642C171.398 40.7642 170.651 40.6165 169.986 40.321C169.327 40.0199 168.804 39.5767 168.418 38.9915C168.037 38.4062 167.847 37.6847 167.847 36.8267C167.847 36.0881 167.983 35.4773 168.256 34.9943C168.528 34.5114 168.901 34.125 169.372 33.8352C169.844 33.5455 170.375 33.3267 170.966 33.179C171.563 33.0256 172.179 32.9148 172.815 32.8466C173.582 32.767 174.205 32.696 174.682 32.6335C175.159 32.5653 175.506 32.4631 175.722 32.3267C175.943 32.1847 176.054 31.9659 176.054 31.6705V31.6193C176.054 30.9773 175.864 30.4801 175.483 30.1278C175.102 29.7756 174.554 29.5994 173.838 29.5994C173.082 29.5994 172.483 29.7642 172.04 30.0938C171.602 30.4233 171.307 30.8125 171.153 31.2614L168.273 30.8523C168.5 30.0568 168.875 29.392 169.398 28.858C169.92 28.3182 170.56 27.9148 171.315 27.6477C172.071 27.375 172.906 27.2386 173.821 27.2386C174.452 27.2386 175.08 27.3125 175.705 27.4602C176.33 27.608 176.901 27.8523 177.418 28.1932C177.935 28.5284 178.349 28.9858 178.662 29.5653C178.98 30.1449 179.139 30.8693 179.139 31.7386V40.5H176.173V38.7017H176.071C175.884 39.0653 175.619 39.4062 175.278 39.7244C174.943 40.0369 174.52 40.2898 174.009 40.483C173.503 40.6705 172.909 40.7642 172.227 40.7642ZM173.028 38.4972C173.648 38.4972 174.185 38.375 174.639 38.1307C175.094 37.8807 175.443 37.5511 175.688 37.142C175.938 36.733 176.062 36.2869 176.062 35.804V34.2614C175.966 34.3409 175.801 34.4148 175.568 34.483C175.341 34.5511 175.085 34.6108 174.801 34.6619C174.517 34.7131 174.236 34.7585 173.957 34.7983C173.679 34.8381 173.438 34.8722 173.233 34.9006C172.773 34.9631 172.361 35.0653 171.997 35.2074C171.634 35.3494 171.347 35.5483 171.136 35.804C170.926 36.054 170.821 36.3778 170.821 36.7756C170.821 37.3438 171.028 37.7727 171.443 38.0625C171.858 38.3523 172.386 38.4972 173.028 38.4972ZM203.271 28.9347H200.084C199.993 28.4119 199.825 27.9489 199.581 27.5455C199.337 27.1364 199.033 26.7898 198.669 26.5057C198.305 26.2216 197.891 26.0085 197.425 25.8665C196.964 25.7188 196.467 25.6449 195.933 25.6449C194.984 25.6449 194.143 25.8835 193.411 26.3608C192.678 26.8324 192.104 27.5256 191.689 28.4403C191.274 29.3494 191.067 30.4602 191.067 31.7727C191.067 33.108 191.274 34.233 191.689 35.1477C192.109 36.0568 192.683 36.7443 193.411 37.2102C194.143 37.6705 194.982 37.9006 195.925 37.9006C196.447 37.9006 196.936 37.8324 197.391 37.696C197.851 37.554 198.263 37.3466 198.626 37.0739C198.996 36.8011 199.305 36.4659 199.555 36.0682C199.811 35.6705 199.987 35.2159 200.084 34.7045L203.271 34.7216C203.152 35.5511 202.893 36.3295 202.496 37.0568C202.104 37.7841 201.589 38.4261 200.953 38.983C200.317 39.5341 199.572 39.9659 198.72 40.2784C197.868 40.5852 196.922 40.7386 195.882 40.7386C194.348 40.7386 192.979 40.3835 191.774 39.6733C190.57 38.9631 189.621 37.9375 188.928 36.5966C188.234 35.2557 187.888 33.6477 187.888 31.7727C187.888 29.892 188.237 28.2841 188.936 26.9489C189.635 25.608 190.587 24.5824 191.791 23.8722C192.996 23.1619 194.359 22.8068 195.882 22.8068C196.854 22.8068 197.757 22.9432 198.592 23.2159C199.428 23.4886 200.172 23.8892 200.825 24.4176C201.479 24.9403 202.016 25.5824 202.436 26.3438C202.862 27.0994 203.141 27.9631 203.271 28.9347ZM211.741 40.7557C210.462 40.7557 209.354 40.4744 208.417 39.9119C207.479 39.3494 206.752 38.5625 206.235 37.5511C205.724 36.5398 205.468 35.358 205.468 34.0057C205.468 32.6534 205.724 31.4687 206.235 30.4517C206.752 29.4347 207.479 28.6449 208.417 28.0824C209.354 27.5199 210.462 27.2386 211.741 27.2386C213.019 27.2386 214.127 27.5199 215.065 28.0824C216.002 28.6449 216.727 29.4347 217.238 30.4517C217.755 31.4687 218.013 32.6534 218.013 34.0057C218.013 35.358 217.755 36.5398 217.238 37.5511C216.727 38.5625 216.002 39.3494 215.065 39.9119C214.127 40.4744 213.019 40.7557 211.741 40.7557ZM211.758 38.2841C212.451 38.2841 213.031 38.0937 213.496 37.7131C213.962 37.3267 214.309 36.8097 214.536 36.1619C214.769 35.5142 214.886 34.7926 214.886 33.9972C214.886 33.196 214.769 32.4716 214.536 31.8239C214.309 31.1705 213.962 30.6506 213.496 30.2642C213.031 29.8778 212.451 29.6847 211.758 29.6847C211.048 29.6847 210.457 29.8778 209.985 30.2642C209.519 30.6506 209.17 31.1705 208.937 31.8239C208.71 32.4716 208.596 33.196 208.596 33.9972C208.596 34.7926 208.71 35.5142 208.937 36.1619C209.17 36.8097 209.519 37.3267 209.985 37.7131C210.457 38.0937 211.048 38.2841 211.758 38.2841ZM227.263 27.4091V29.7955L219.524 29.7955V27.4091L227.263 27.4091ZM221.459 40.5V26.1733C221.459 25.2926 221.641 24.5597 222.004 23.9744C222.374 23.3892 222.868 22.9517 223.487 22.6619C224.107 22.3722 224.794 22.2273 225.55 22.2273C226.084 22.2273 226.558 22.2699 226.973 22.3551C227.388 22.4403 227.695 22.517 227.893 22.5852L227.28 24.9716C227.149 24.9318 226.984 24.892 226.786 24.8523C226.587 24.8068 226.365 24.7841 226.121 24.7841C225.547 24.7841 225.141 24.9233 224.902 25.2017C224.669 25.4744 224.553 25.8665 224.553 26.3778V40.5H221.459ZM236.31 27.4091V29.7955H228.571V27.4091H236.31ZM230.506 40.5V26.1733C230.506 25.2926 230.688 24.5597 231.051 23.9744C231.42 23.3892 231.915 22.9517 232.534 22.6619C233.153 22.3722 233.841 22.2273 234.597 22.2273C235.131 22.2273 235.605 22.2699 236.02 22.3551C236.435 22.4403 236.741 22.517 236.94 22.5852L236.327 24.9716C236.196 24.9318 236.031 24.892 235.832 24.8523C235.634 24.8068 235.412 24.7841 235.168 24.7841C234.594 24.7841 234.188 24.9233 233.949 25.2017C233.716 25.4744 233.599 25.8665 233.599 26.3778V40.5H230.506ZM244.029 40.7557C242.717 40.7557 241.583 40.483 240.629 39.9375C239.68 39.3864 238.95 38.608 238.438 37.6023C237.927 36.5909 237.671 35.4006 237.671 34.0313C237.671 32.6847 237.927 31.5028 238.438 30.4858C238.955 29.4631 239.677 28.6676 240.603 28.0994C241.529 27.5256 242.617 27.2386 243.867 27.2386C244.674 27.2386 245.435 27.3693 246.151 27.6307C246.873 27.8864 247.509 28.2841 248.06 28.8239C248.617 29.3636 249.055 30.0511 249.373 30.8864C249.691 31.7159 249.85 32.7045 249.85 33.8523V34.7983H239.12V32.7188H246.893C246.887 32.1278 246.759 31.6023 246.509 31.142C246.259 30.6761 245.91 30.3097 245.461 30.0426C245.018 29.7756 244.501 29.642 243.91 29.642C243.279 29.642 242.725 29.7955 242.248 30.1023C241.771 30.4034 241.398 30.8011 241.131 31.2955C240.87 31.7841 240.737 32.321 240.731 32.9063V34.7216C240.731 35.483 240.87 36.1364 241.148 36.6818C241.427 37.2216 241.816 37.6364 242.316 37.9261C242.816 38.2102 243.401 38.3523 244.072 38.3523C244.521 38.3523 244.927 38.2898 245.29 38.1648C245.654 38.0341 245.969 37.8438 246.237 37.5938C246.504 37.3438 246.705 37.0341 246.842 36.6648L249.722 36.9886C249.54 37.75 249.194 38.4148 248.683 38.983C248.177 39.5455 247.529 39.983 246.739 40.2955C245.95 40.6023 245.046 40.7557 244.029 40.7557ZM258.256 40.7557C256.943 40.7557 255.81 40.483 254.855 39.9375C253.906 39.3864 253.176 38.608 252.665 37.6023C252.153 36.5909 251.898 35.4006 251.898 34.0313C251.898 32.6847 252.153 31.5028 252.665 30.4858C253.182 29.4631 253.903 28.6676 254.83 28.0994C255.756 27.5256 256.844 27.2386 258.094 27.2386C258.901 27.2386 259.662 27.3693 260.378 27.6307C261.099 27.8864 261.736 28.2841 262.287 28.8239C262.844 29.3636 263.281 30.0511 263.599 30.8864C263.918 31.7159 264.077 32.7045 264.077 33.8523V34.7983H253.347V32.7188H261.119C261.114 32.1278 260.986 31.6023 260.736 31.142C260.486 30.6761 260.136 30.3097 259.688 30.0426C259.244 29.7756 258.727 29.642 258.136 29.642C257.506 29.642 256.952 29.7955 256.474 30.1023C255.997 30.4034 255.625 30.8011 255.358 31.2955C255.097 31.7841 254.963 32.321 254.957 32.9063V34.7216C254.957 35.483 255.097 36.1364 255.375 36.6818C255.653 37.2216 256.043 37.6364 256.543 37.9261C257.043 38.2102 257.628 38.3523 258.298 38.3523C258.747 38.3523 259.153 38.2898 259.517 38.1648C259.881 38.0341 260.196 37.8438 260.463 37.5938C260.73 37.3438 260.932 37.0341 261.068 36.6648L263.949 36.9886C263.767 37.75 263.42 38.4148 262.909 38.983C262.403 39.5455 261.756 39.983 260.966 40.2955C260.176 40.6023 259.273 40.7557 258.256 40.7557Z"
    class="fill"
  />
  <rect
    x="1.5"
    y="1.5"
    width="283"
    height="61"
    rx="10.5"
    stroke-width="3"
    class="stroke"
  />
</svg>
