<svg
  width="560"
  height="85"
  viewBox="0 0 560 85"
  fill="none"
  xmlns="http://www.w3.org/2000/svg"
>
  <style>
    .name {
      fill: #000;
    }
    @media (prefers-color-scheme: dark) {
      .name {
        fill: #fff;
      }
    }
  </style>
  <path
    d="M14.4493 82.1541C13.9654 82.1541 13.5296 82.0679 13.1418 81.8956C12.7573 81.7199 12.4524 81.4614 12.227 81.12C12.0049 80.7786 11.8939 80.3577 11.8939 79.8572C11.8939 79.4264 11.9735 79.0701 12.1325 78.7884C12.2916 78.5066 12.5087 78.2812 12.7838 78.1122C13.0589 77.9432 13.3688 77.8156 13.7135 77.7294C14.0615 77.6399 14.4211 77.5753 14.7923 77.5355C15.2398 77.4891 15.6027 77.4477 15.8811 77.4112C16.1595 77.3714 16.3617 77.3118 16.4877 77.2322C16.6169 77.1494 16.6816 77.0218 16.6816 76.8494V76.8196C16.6816 76.4451 16.5705 76.1551 16.3485 75.9496C16.1264 75.7441 15.8066 75.6413 15.3889 75.6413C14.9481 75.6413 14.5985 75.7375 14.3399 75.9297C14.0847 76.1219 13.9124 76.349 13.8229 76.6108L12.1425 76.3722C12.2751 75.9081 12.4938 75.5204 12.7987 75.2088C13.1037 74.8939 13.4765 74.6586 13.9173 74.5028C14.3582 74.3438 14.8454 74.2642 15.379 74.2642C15.7469 74.2642 16.1131 74.3073 16.4777 74.3935C16.8423 74.4796 17.1754 74.6222 17.477 74.821C17.7786 75.0166 18.0206 75.2834 18.2029 75.6214C18.3885 75.9595 18.4813 76.3821 18.4813 76.8892V82H16.7512V80.951H16.6915C16.5821 81.1631 16.428 81.362 16.2291 81.5476C16.0336 81.7299 15.7867 81.8774 15.4884 81.9901C15.1934 82.0994 14.847 82.1541 14.4493 82.1541ZM14.9166 80.8317C15.2779 80.8317 15.5911 80.7604 15.8563 80.6179C16.1214 80.4721 16.3253 80.2798 16.4678 80.0412C16.6136 79.8026 16.6865 79.5424 16.6865 79.2607V78.3608C16.6302 78.4072 16.5341 78.4503 16.3982 78.4901C16.2656 78.5298 16.1164 78.5646 15.9507 78.5945C15.785 78.6243 15.6209 78.6508 15.4585 78.674C15.2961 78.6972 15.1553 78.7171 15.036 78.7337C14.7675 78.7701 14.5272 78.8298 14.3151 78.9126C14.103 78.9955 13.9356 79.1115 13.8129 79.2607C13.6903 79.4065 13.629 79.5954 13.629 79.8274C13.629 80.1589 13.75 80.4091 13.9919 80.5781C14.2339 80.7472 14.5421 80.8317 14.9166 80.8317ZM25.3868 84.8636L25.3868 80.7969H25.3122C25.2194 80.9825 25.0852 81.1797 24.9095 81.3885C24.7339 81.594 24.5019 81.7696 24.2135 81.9155C23.9252 82.0613 23.5622 82.1342 23.1247 82.1342C22.5248 82.1342 21.9879 81.9801 21.5139 81.6719C21.04 81.3636 20.6655 80.9162 20.3904 80.3295C20.1153 79.7429 19.9777 79.0303 19.9777 78.1918C19.9777 77.3433 20.1169 76.6274 20.3953 76.044C20.6771 75.4574 21.0566 75.0149 21.5338 74.7166C22.0111 74.415 22.5431 74.2642 23.1297 74.2642C23.5771 74.2642 23.945 74.3404 24.2334 74.4929C24.5218 74.642 24.7504 74.8227 24.9195 75.0348C25.0885 75.2436 25.2194 75.4408 25.3122 75.6264H25.4216V74.3636H27.1915L27.1915 84.8636H25.3868ZM23.6269 80.6577C24.008 80.6577 24.3328 80.5549 24.6013 80.3494C24.8698 80.1406 25.0736 79.8506 25.2128 79.4794C25.352 79.1082 25.4216 78.6757 25.4216 78.1818C25.4216 77.688 25.352 77.2588 25.2128 76.8942C25.0769 76.5296 24.8747 76.2462 24.6063 76.044C24.3411 75.8419 24.0146 75.7408 23.6269 75.7408C23.2258 75.7408 22.8911 75.8452 22.6226 76.054C22.3541 76.2628 22.152 76.5511 22.0161 76.919C21.8802 77.2869 21.8122 77.7079 21.8122 78.1818C21.8122 78.6591 21.8802 79.085 22.0161 79.4595C22.1553 79.8307 22.3591 80.1241 22.6276 80.3395C22.8994 80.5516 23.2325 80.6577 23.6269 80.6577ZM33.9081 78.7884V74.3636H35.7078V82H33.9628V80.6428H33.8833C33.7109 81.0703 33.4275 81.42 33.0331 81.6918C32.642 81.9635 32.1598 82.0994 31.5864 82.0994C31.0859 82.0994 30.6434 81.9884 30.259 81.7663C29.8778 81.541 29.5795 81.2145 29.3641 80.7869C29.1486 80.3561 29.0409 79.8357 29.0409 79.2259V74.3636H30.8406V78.9474C30.8406 79.4313 30.9732 79.8158 31.2384 80.1009C31.5035 80.3859 31.8515 80.5284 32.2824 80.5284C32.5476 80.5284 32.8044 80.4638 33.053 80.3345C33.3016 80.2053 33.5054 80.013 33.6645 79.7578C33.8269 79.4993 33.9081 79.1761 33.9081 78.7884ZM39.7559 82.1541C39.272 82.1541 38.8362 82.0679 38.4484 81.8956C38.064 81.7199 37.759 81.4614 37.5336 81.12C37.3116 80.7786 37.2006 80.3577 37.2006 79.8572C37.2006 79.4264 37.2801 79.0701 37.4392 78.7884C37.5983 78.5066 37.8154 78.2812 38.0905 78.1122C38.3656 77.9432 38.6755 77.8156 39.0202 77.7294C39.3682 77.6399 39.7278 77.5753 40.099 77.5355C40.5464 77.4891 40.9094 77.4477 41.1878 77.4112C41.4662 77.3714 41.6684 77.3118 41.7943 77.2322C41.9236 77.1494 41.9882 77.0218 41.9882 76.8494V76.8196C41.9882 76.4451 41.8772 76.1551 41.6551 75.9496C41.433 75.7441 41.1132 75.6413 40.6956 75.6413C40.2548 75.6413 39.9051 75.7375 39.6466 75.9297C39.3914 76.1219 39.219 76.349 39.1295 76.6108L37.4491 76.3722C37.5817 75.9081 37.8005 75.5204 38.1054 75.2088C38.4103 74.8939 38.7832 74.6586 39.224 74.5028C39.6648 74.3438 40.152 74.2642 40.6856 74.2642C41.0535 74.2642 41.4198 74.3073 41.7844 74.3935C42.1489 74.4796 42.482 74.6222 42.7836 74.821C43.0853 75.0166 43.3272 75.2834 43.5095 75.6214C43.6951 75.9595 43.7879 76.3821 43.7879 76.8892V82H42.0578V80.951H41.9981C41.8888 81.1631 41.7346 81.362 41.5358 81.5476C41.3402 81.7299 41.0933 81.8774 40.795 81.9901C40.5 82.0994 40.1537 82.1541 39.7559 82.1541ZM40.2233 80.8317C40.5845 80.8317 40.8978 80.7604 41.1629 80.6179C41.4281 80.4721 41.6319 80.2798 41.7744 80.0412C41.9202 79.8026 41.9932 79.5424 41.9932 79.2607V78.3608C41.9368 78.4072 41.8407 78.4503 41.7048 78.4901C41.5722 78.5298 41.4231 78.5646 41.2574 78.5945C41.0916 78.6243 40.9276 78.6508 40.7652 78.674C40.6028 78.6972 40.4619 78.7171 40.3426 78.7337C40.0741 78.7701 39.8338 78.8298 39.6217 78.9126C39.4096 78.9955 39.2422 79.1115 39.1196 79.2607C38.997 79.4065 38.9356 79.5954 38.9356 79.8274C38.9356 80.1589 39.0566 80.4091 39.2986 80.5781C39.5405 80.7472 39.8488 80.8317 40.2233 80.8317Z"
    class="name"
  />
  <rect width="56" height="56" rx="12" fill="#00151A" />
  <path
    d="M0 28H56V44C56 50.6274 50.6274 56 44 56H12C5.37258 56 0 50.6274 0 44V28Z"
    fill="#00AACC"
  />
  <rect
    x="1"
    y="1"
    width="54"
    height="54"
    rx="11"
    stroke="white"
    stroke-opacity="0.2"
    stroke-width="2"
  />
  <path
    d="M82.7455 82V71.8182H84.5452V75.6264H84.6198C84.7126 75.4408 84.8435 75.2436 85.0125 75.0348C85.1816 74.8227 85.4102 74.642 85.6986 74.4929C85.9869 74.3404 86.3548 74.2642 86.8023 74.2642C87.3923 74.2642 87.9242 74.415 88.3982 74.7166C88.8754 75.0149 89.2533 75.4574 89.5317 76.044C89.8134 76.6274 89.9543 77.3433 89.9543 78.1918C89.9543 79.0303 89.8167 79.7429 89.5416 80.3295C89.2665 80.9162 88.892 81.3636 88.4181 81.6719C87.9441 81.9801 87.4072 82.1342 86.8073 82.1342C86.3698 82.1342 86.0068 82.0613 85.7185 81.9155C85.4301 81.7696 85.1981 81.594 85.0225 81.3885C84.8501 81.1797 84.7159 80.9825 84.6198 80.7969H84.5154V82H82.7455ZM84.5104 78.1818C84.5104 78.6757 84.58 79.1082 84.7192 79.4794C84.8617 79.8506 85.0655 80.1406 85.3307 80.3494C85.5992 80.5549 85.924 80.6577 86.3051 80.6577C86.7029 80.6577 87.036 80.5516 87.3044 80.3395C87.5729 80.1241 87.7751 79.8307 87.911 79.4595C88.0502 79.085 88.1198 78.6591 88.1198 78.1818C88.1198 77.7079 88.0518 77.2869 87.9159 76.919C87.78 76.5511 87.5779 76.2628 87.3094 76.054C87.0409 75.8452 86.7062 75.7408 86.3051 75.7408C85.9207 75.7408 85.5942 75.8419 85.3257 76.044C85.0573 76.2462 84.8534 76.5296 84.7142 76.8942C84.5783 77.2588 84.5104 77.688 84.5104 78.1818ZM94.865 82.1491C94.0993 82.1491 93.4381 81.9901 92.8813 81.6719C92.3278 81.3504 91.9019 80.8963 91.6036 80.3097C91.3053 79.7197 91.1562 79.0253 91.1562 78.2266C91.1562 77.4411 91.3053 76.7517 91.6036 76.1584C91.9052 75.5618 92.3261 75.0978 92.8664 74.7663C93.4066 74.4316 94.0413 74.2642 94.7705 74.2642C95.2412 74.2642 95.6853 74.3404 96.1029 74.4929C96.5238 74.642 96.895 74.8741 97.2165 75.1889C97.5413 75.5038 97.7965 75.9048 97.9822 76.392C98.1678 76.8759 98.2606 77.4527 98.2606 78.1222V78.674H92.0013V77.4609H96.5354C96.5321 77.1162 96.4575 76.8097 96.3117 76.5412C96.1659 76.2694 95.962 76.0556 95.7002 75.8999C95.4417 75.7441 95.1401 75.6662 94.7954 75.6662C94.4275 75.6662 94.1043 75.7557 93.8259 75.9347C93.5475 76.1103 93.3304 76.3423 93.1746 76.6307C93.0222 76.9157 92.9443 77.2289 92.941 77.5703V78.6293C92.941 79.0734 93.0222 79.4545 93.1846 79.7727C93.347 80.0876 93.574 80.3295 93.8657 80.4986C94.1573 80.6643 94.4987 80.7472 94.8898 80.7472C95.1517 80.7472 95.3886 80.7107 95.6008 80.6378C95.8129 80.5616 95.9968 80.4505 96.1526 80.3047C96.3084 80.1589 96.426 79.9782 96.5056 79.7628L98.186 79.9517C98.0799 80.3958 97.8778 80.7836 97.5795 81.1151C97.2845 81.4432 96.9066 81.6984 96.4459 81.8807C95.9852 82.0597 95.4582 82.1491 94.865 82.1491ZM99.7831 82V74.3636H101.528V75.6364H101.608C101.747 75.1955 101.986 74.8558 102.324 74.6172C102.665 74.3752 103.054 74.2543 103.492 74.2543C103.591 74.2543 103.702 74.2592 103.825 74.2692C103.951 74.2758 104.055 74.2874 104.138 74.304V75.9595C104.062 75.933 103.941 75.9098 103.775 75.8899C103.613 75.8667 103.455 75.8551 103.303 75.8551C102.975 75.8551 102.68 75.9264 102.418 76.0689C102.16 76.2081 101.956 76.402 101.807 76.6506C101.657 76.8991 101.583 77.1858 101.583 77.5107V82H99.7831ZM105.334 82V74.3636H107.079V75.6364H107.158C107.298 75.1955 107.536 74.8558 107.874 74.6172C108.216 74.3752 108.605 74.2543 109.043 74.2543C109.142 74.2543 109.253 74.2592 109.376 74.2692C109.502 74.2758 109.606 74.2874 109.689 74.304V75.9595C109.613 75.933 109.492 75.9098 109.326 75.8899C109.164 75.8667 109.006 75.8551 108.854 75.8551C108.526 75.8551 108.231 75.9264 107.969 76.0689C107.71 76.2081 107.506 76.402 107.357 76.6506C107.208 76.8991 107.134 77.1858 107.134 77.5107V82H105.334ZM112.236 84.8636C111.99 84.8636 111.763 84.8438 111.555 84.804C111.349 84.7675 111.185 84.7244 111.062 84.6747L111.48 83.2727C111.742 83.349 111.976 83.3854 112.181 83.3821C112.387 83.3788 112.567 83.3142 112.723 83.1882C112.882 83.0656 113.016 82.8601 113.126 82.5717L113.28 82.1591L110.511 74.3636H112.42L114.18 80.1307H114.259L116.024 74.3636L117.938 74.3636L114.881 82.9247C114.738 83.3291 114.549 83.6754 114.314 83.9638C114.079 84.2554 113.79 84.4775 113.449 84.63C113.111 84.7857 112.706 84.8636 112.236 84.8636Z"
    class="name"
  />
  <rect x="72" width="56" height="56" rx="12" fill="#14050F" />
  <path
    d="M72 28H128V44C128 50.6274 122.627 56 116 56H84C77.3726 56 72 50.6274 72 44V28Z"
    fill="#7A1F5C"
  />
  <rect
    x="73"
    y="1"
    width="54"
    height="54"
    rx="11"
    stroke="white"
    stroke-opacity="0.2"
    stroke-width="2"
  />
  <path
    d="M162.112 82.1491C161.35 82.1491 160.695 81.9818 160.148 81.647C159.605 81.3123 159.186 80.8499 158.891 80.2599C158.599 79.6667 158.453 78.9839 158.453 78.2116C158.453 77.4361 158.602 76.7517 158.9 76.1584C159.199 75.5618 159.62 75.0978 160.163 74.7663C160.71 74.4316 161.356 74.2642 162.102 74.2642C162.722 74.2642 163.271 74.3786 163.748 74.6072C164.228 74.8326 164.611 75.1525 164.896 75.5668C165.181 75.9777 165.344 76.4583 165.383 77.0085H163.663C163.594 76.6406 163.428 76.334 163.166 76.0888C162.908 75.8402 162.561 75.7159 162.127 75.7159C161.759 75.7159 161.436 75.8153 161.158 76.0142C160.879 76.2098 160.662 76.4915 160.506 76.8594C160.354 77.2273 160.278 77.6681 160.278 78.1818C160.278 78.7022 160.354 79.1496 160.506 79.5241C160.659 79.8954 160.873 80.1821 161.148 80.3842C161.426 80.5831 161.753 80.6825 162.127 80.6825C162.392 80.6825 162.629 80.6328 162.838 80.5334C163.05 80.4306 163.227 80.2831 163.37 80.0909C163.512 79.8987 163.61 79.665 163.663 79.3899H165.383C165.34 79.9302 165.181 80.4091 164.906 80.8267C164.631 81.241 164.257 81.5658 163.783 81.8011C163.309 82.0331 162.752 82.1491 162.112 82.1491ZM170.192 82.1491C169.446 82.1491 168.8 81.9851 168.253 81.657C167.706 81.3288 167.282 80.8698 166.981 80.2798C166.682 79.6899 166.533 79.0005 166.533 78.2116C166.533 77.4228 166.682 76.7318 166.981 76.1385C167.282 75.5452 167.706 75.0845 168.253 74.7564C168.8 74.4283 169.446 74.2642 170.192 74.2642C170.938 74.2642 171.584 74.4283 172.131 74.7564C172.678 75.0845 173.101 75.5452 173.399 76.1385C173.7 76.7318 173.851 77.4228 173.851 78.2116C173.851 79.0005 173.7 79.6899 173.399 80.2798C173.101 80.8698 172.678 81.3288 172.131 81.657C171.584 81.9851 170.938 82.1491 170.192 82.1491ZM170.202 80.7074C170.607 80.7074 170.945 80.5964 171.216 80.3743C171.488 80.1489 171.69 79.8473 171.823 79.4695C171.959 79.0916 172.027 78.6707 172.027 78.2067C172.027 77.7393 171.959 77.3168 171.823 76.9389C171.69 76.5578 171.488 76.2545 171.216 76.0291C170.945 75.8037 170.607 75.6911 170.202 75.6911C169.788 75.6911 169.443 75.8037 169.168 76.0291C168.896 76.2545 168.692 76.5578 168.557 76.9389C168.424 77.3168 168.358 77.7393 168.358 78.2067C168.358 78.6707 168.424 79.0916 168.557 79.4695C168.692 79.8473 168.896 80.1489 169.168 80.3743C169.443 80.5964 169.788 80.7074 170.202 80.7074ZM177.576 82.1541C177.092 82.1541 176.657 82.0679 176.269 81.8956C175.884 81.7199 175.579 81.4614 175.354 81.12C175.132 80.7786 175.021 80.3577 175.021 79.8572C175.021 79.4264 175.1 79.0701 175.259 78.7884C175.419 78.5066 175.636 78.2812 175.911 78.1122C176.186 77.9432 176.496 77.8156 176.84 77.7294C177.188 77.6399 177.548 77.5753 177.919 77.5355C178.367 77.4891 178.73 77.4477 179.008 77.4112C179.286 77.3714 179.489 77.3118 179.615 77.2322C179.744 77.1494 179.809 77.0218 179.809 76.8494V76.8196C179.809 76.4451 179.697 76.1551 179.475 75.9496C179.253 75.7441 178.934 75.6413 178.516 75.6413C178.075 75.6413 177.725 75.7375 177.467 75.9297C177.212 76.1219 177.039 76.349 176.95 76.6108L175.269 76.3722C175.402 75.9081 175.621 75.5204 175.926 75.2088C176.231 74.8939 176.603 74.6586 177.044 74.5028C177.485 74.3438 177.972 74.2642 178.506 74.2642C178.874 74.2642 179.24 74.3073 179.605 74.3935C179.969 74.4796 180.302 74.6222 180.604 74.821C180.906 75.0166 181.148 75.2834 181.33 75.6214C181.515 75.9595 181.608 76.3821 181.608 76.8892V82H179.878V80.951H179.818C179.709 81.1631 179.555 81.362 179.356 81.5476C179.161 81.7299 178.914 81.8774 178.615 81.9901C178.32 82.0994 177.974 82.1541 177.576 82.1541ZM178.044 80.8317C178.405 80.8317 178.718 80.7604 178.983 80.6179C179.248 80.4721 179.452 80.2798 179.595 80.0412C179.741 79.8026 179.813 79.5424 179.813 79.2607V78.3608C179.757 78.4072 179.661 78.4503 179.525 78.4901C179.393 78.5298 179.243 78.5646 179.078 78.5945C178.912 78.6243 178.748 78.6508 178.585 78.674C178.423 78.6972 178.282 78.7171 178.163 78.7337C177.894 78.7701 177.654 78.8298 177.442 78.9126C177.23 78.9955 177.063 79.1115 176.94 79.2607C176.817 79.4065 176.756 79.5954 176.756 79.8274C176.756 80.1589 176.877 80.4091 177.119 80.5781C177.361 80.7472 177.669 80.8317 178.044 80.8317ZM185.218 71.8182V82H183.418V71.8182H185.218Z"
    class="name"
  />
  <rect x="144" width="56" height="56" rx="12" fill="#000000" />
  <path
    d="M144 28H200V44C200 50.6274 194.627 56 188 56H156C149.373 56 144 50.6274 144 44V28Z"
    fill="#666666"
  />
  <rect
    x="145"
    y="1"
    width="54"
    height="54"
    rx="11"
    stroke="white"
    stroke-opacity="0.2"
    stroke-width="2"
  />
  <path
    d="M220.967 82.1491C220.204 82.1491 219.55 81.9818 219.003 81.647C218.459 81.3123 218.04 80.8499 217.745 80.2599C217.453 79.6667 217.308 78.9839 217.308 78.2116C217.308 77.4361 217.457 76.7517 217.755 76.1584C218.053 75.5618 218.474 75.0978 219.018 74.7663C219.565 74.4316 220.211 74.2642 220.957 74.2642C221.576 74.2642 222.125 74.3786 222.602 74.6072C223.083 74.8326 223.466 75.1525 223.751 75.5668C224.036 75.9777 224.198 76.4583 224.238 77.0085H222.518C222.448 76.6406 222.282 76.334 222.021 76.0888C221.762 75.8402 221.416 75.7159 220.982 75.7159C220.614 75.7159 220.29 75.8153 220.012 76.0142C219.734 76.2098 219.517 76.4915 219.361 76.8594C219.208 77.2273 219.132 77.6681 219.132 78.1818C219.132 78.7022 219.208 79.1496 219.361 79.5241C219.513 79.8954 219.727 80.1821 220.002 80.3842C220.281 80.5831 220.607 80.6825 220.982 80.6825C221.247 80.6825 221.484 80.6328 221.692 80.5334C221.905 80.4306 222.082 80.2831 222.224 80.0909C222.367 79.8987 222.465 79.665 222.518 79.3899H224.238C224.195 79.9302 224.036 80.4091 223.761 80.8267C223.486 81.241 223.111 81.5658 222.637 81.8011C222.163 82.0331 221.606 82.1491 220.967 82.1491ZM225.716 82V74.3636H227.461V75.6364H227.54C227.68 75.1955 227.918 74.8558 228.256 74.6172C228.598 74.3752 228.987 74.2543 229.425 74.2543C229.524 74.2543 229.635 74.2592 229.758 74.2692C229.884 74.2758 229.988 74.2874 230.071 74.304V75.9595C229.995 75.933 229.874 75.9098 229.708 75.8899C229.546 75.8667 229.388 75.8551 229.236 75.8551C228.907 75.8551 228.613 75.9264 228.351 76.0689C228.092 76.2081 227.888 76.402 227.739 76.6506C227.59 76.8991 227.515 77.1858 227.515 77.5107V82H225.716ZM231.267 82V74.3636H233.066V82H231.267ZM232.171 73.2798C231.886 73.2798 231.641 73.1854 231.436 72.9964C231.23 72.8042 231.127 72.5739 231.127 72.3054C231.127 72.0336 231.23 71.8033 231.436 71.6143C231.641 71.4221 231.886 71.326 232.171 71.326C232.46 71.326 232.705 71.4221 232.907 71.6143C233.113 71.8033 233.215 72.0336 233.215 72.3054C233.215 72.5739 233.113 72.8042 232.907 72.9964C232.705 73.1854 232.46 73.2798 232.171 73.2798ZM234.917 82V74.3636H236.637V75.6612H236.727C236.886 75.2237 237.149 74.8823 237.517 74.6371C237.885 74.3885 238.324 74.2642 238.835 74.2642C239.352 74.2642 239.787 74.3902 240.142 74.642C240.5 74.8906 240.752 75.2304 240.898 75.6612H240.977C241.146 75.237 241.431 74.8989 241.832 74.647C242.237 74.3918 242.716 74.2642 243.269 74.2642C243.972 74.2642 244.545 74.4863 244.989 74.9304C245.433 75.3745 245.656 76.0225 245.656 76.8743V82H243.851V77.1527C243.851 76.6787 243.725 76.3324 243.473 76.1136C243.221 75.8916 242.913 75.7805 242.548 75.7805C242.114 75.7805 241.774 75.9164 241.529 76.1882C241.287 76.4567 241.166 76.8063 241.166 77.2372V82H239.401V77.0781C239.401 76.6837 239.282 76.3688 239.043 76.1335C238.808 75.8982 238.5 75.7805 238.119 75.7805C237.86 75.7805 237.625 75.8468 237.413 75.9794C237.201 76.1087 237.031 76.2926 236.906 76.5312C236.78 76.7666 236.717 77.0417 236.717 77.3565V82H234.917ZM253.517 76.3821L251.876 76.5611C251.83 76.3954 251.749 76.2396 251.633 76.0938C251.52 75.9479 251.367 75.8303 251.175 75.7408C250.983 75.6513 250.748 75.6065 250.469 75.6065C250.095 75.6065 249.78 75.6877 249.525 75.8501C249.273 76.0125 249.148 76.223 249.152 76.4815C249.148 76.7036 249.23 76.8842 249.395 77.0234C249.564 77.1626 249.843 77.277 250.231 77.3665L251.533 77.6449C252.256 77.8007 252.793 78.0476 253.144 78.3857C253.499 78.7237 253.678 79.1662 253.681 79.7131C253.678 80.1937 253.537 80.6179 253.258 80.9858C252.983 81.3504 252.6 81.6354 252.11 81.8409C251.619 82.0464 251.056 82.1491 250.42 82.1491C249.485 82.1491 248.733 81.9536 248.162 81.5625C247.592 81.1681 247.253 80.6196 247.143 79.9169L248.898 79.7479C248.978 80.0926 249.147 80.3527 249.405 80.5284C249.664 80.7041 250 80.7919 250.415 80.7919C250.842 80.7919 251.185 80.7041 251.444 80.5284C251.706 80.3527 251.836 80.1357 251.836 79.8771C251.836 79.6584 251.752 79.4777 251.583 79.3352C251.417 79.1927 251.159 79.0833 250.807 79.0071L249.505 78.7337C248.772 78.5812 248.23 78.3243 247.879 77.9631C247.528 77.5985 247.354 77.1378 247.357 76.581C247.354 76.1103 247.481 75.7027 247.74 75.358C248.002 75.0099 248.365 74.7415 248.829 74.5526C249.296 74.3603 249.835 74.2642 250.444 74.2642C251.339 74.2642 252.044 74.4548 252.557 74.8359C253.074 75.2171 253.394 75.7325 253.517 76.3821ZM258.496 82.1491C257.75 82.1491 257.104 81.9851 256.557 81.657C256.01 81.3288 255.586 80.8698 255.284 80.2798C254.986 79.6899 254.837 79.0005 254.837 78.2116C254.837 77.4228 254.986 76.7318 255.284 76.1385C255.586 75.5452 256.01 75.0845 256.557 74.7564C257.104 74.4283 257.75 74.2642 258.496 74.2642C259.242 74.2642 259.888 74.4283 260.435 74.7564C260.982 75.0845 261.404 75.5452 261.703 76.1385C262.004 76.7318 262.155 77.4228 262.155 78.2116C262.155 79.0005 262.004 79.6899 261.703 80.2798C261.404 80.8698 260.982 81.3288 260.435 81.657C259.888 81.9851 259.242 82.1491 258.496 82.1491ZM258.506 80.7074C258.91 80.7074 259.248 80.5964 259.52 80.3743C259.792 80.1489 259.994 79.8473 260.127 79.4695C260.262 79.0916 260.33 78.6707 260.33 78.2067C260.33 77.7393 260.262 77.3168 260.127 76.9389C259.994 76.5578 259.792 76.2545 259.52 76.0291C259.248 75.8037 258.91 75.6911 258.506 75.6911C258.092 75.6911 257.747 75.8037 257.472 76.0291C257.2 76.2545 256.996 76.5578 256.86 76.9389C256.728 77.3168 256.661 77.7393 256.661 78.2067C256.661 78.6707 256.728 79.0916 256.86 79.4695C256.996 79.8473 257.2 80.1489 257.472 80.3743C257.747 80.5964 258.092 80.7074 258.506 80.7074ZM265.482 77.5256V82H263.683V74.3636H265.403V75.6612H265.492C265.668 75.2337 265.948 74.8939 266.332 74.642C266.72 74.3902 267.199 74.2642 267.769 74.2642C268.296 74.2642 268.755 74.3769 269.146 74.6023C269.541 74.8277 269.846 75.1541 270.061 75.5817C270.28 76.0092 270.388 76.5279 270.384 77.1378V82H268.585V77.4162C268.585 76.9058 268.452 76.5064 268.187 76.218C267.925 75.9297 267.562 75.7855 267.098 75.7855C266.783 75.7855 266.503 75.8551 266.258 75.9943C266.016 76.1302 265.825 76.3274 265.686 76.5859C265.55 76.8445 265.482 77.1577 265.482 77.5256Z"
    class="name"
  />
  <rect x="216" width="56" height="56" rx="12" fill="#1A0009" />
  <path
    d="M216 28H272V44C272 50.6274 266.627 56 260 56H228C221.373 56 216 50.6274 216 44V28Z"
    fill="#CC0044"
  />
  <rect
    x="217"
    y="1"
    width="54"
    height="54"
    rx="11"
    stroke="white"
    stroke-opacity="0.2"
    stroke-width="2"
  />
  <path
    d="M304.642 71.8182V82H302.843V71.8182H304.642ZM306.493 82V74.3636H308.293V82H306.493ZM307.398 73.2798C307.113 73.2798 306.868 73.1854 306.662 72.9964C306.457 72.8042 306.354 72.5739 306.354 72.3054C306.354 72.0336 306.457 71.8033 306.662 71.6143C306.868 71.4221 307.113 71.326 307.398 71.326C307.686 71.326 307.932 71.4221 308.134 71.6143C308.339 71.8033 308.442 72.0336 308.442 72.3054C308.442 72.5739 308.339 72.8042 308.134 72.9964C307.932 73.1854 307.686 73.2798 307.398 73.2798ZM310.143 82V74.3636H311.864V75.6612H311.953C312.112 75.2237 312.376 74.8823 312.744 74.6371C313.112 74.3885 313.551 74.2642 314.061 74.2642C314.578 74.2642 315.014 74.3902 315.369 74.642C315.727 74.8906 315.978 75.2304 316.124 75.6612H316.204C316.373 75.237 316.658 74.8989 317.059 74.647C317.463 74.3918 317.942 74.2642 318.496 74.2642C319.198 74.2642 319.772 74.4863 320.216 74.9304C320.66 75.3745 320.882 76.0225 320.882 76.8743V82H319.077V77.1527C319.077 76.6787 318.951 76.3324 318.7 76.1136C318.448 75.8916 318.139 75.7805 317.775 75.7805C317.341 75.7805 317.001 75.9164 316.756 76.1882C316.514 76.4567 316.393 76.8063 316.393 77.2372V82H314.628V77.0781C314.628 76.6837 314.509 76.3688 314.27 76.1335C314.035 75.8982 313.726 75.7805 313.345 75.7805C313.087 75.7805 312.851 75.8468 312.639 75.9794C312.427 76.1087 312.258 76.2926 312.132 76.5312C312.006 76.7666 311.943 77.0417 311.943 77.3565V82H310.143ZM326.089 82.1491C325.323 82.1491 324.662 81.9901 324.105 81.6719C323.551 81.3504 323.126 80.8963 322.827 80.3097C322.529 79.7197 322.38 79.0253 322.38 78.2266C322.38 77.4411 322.529 76.7517 322.827 76.1584C323.129 75.5618 323.55 75.0978 324.09 74.7663C324.63 74.4316 325.265 74.2642 325.994 74.2642C326.465 74.2642 326.909 74.3404 327.327 74.4929C327.747 74.642 328.119 74.8741 328.44 75.1889C328.765 75.5038 329.02 75.9048 329.206 76.392C329.391 76.8759 329.484 77.4527 329.484 78.1222V78.674H323.225V77.4609H327.759C327.756 77.1162 327.681 76.8097 327.535 76.5412C327.39 76.2694 327.186 76.0556 326.924 75.8999C326.665 75.7441 326.364 75.6662 326.019 75.6662C325.651 75.6662 325.328 75.7557 325.05 75.9347C324.771 76.1103 324.554 76.3423 324.398 76.6307C324.246 76.9157 324.168 77.2289 324.165 77.5703V78.6293C324.165 79.0734 324.246 79.4545 324.408 79.7727C324.571 80.0876 324.798 80.3295 325.089 80.4986C325.381 80.6643 325.722 80.7472 326.113 80.7472C326.375 80.7472 326.612 80.7107 326.824 80.6378C327.037 80.5616 327.22 80.4505 327.376 80.3047C327.532 80.1589 327.65 79.9782 327.729 79.7628L329.41 79.9517C329.304 80.3958 329.101 80.7836 328.803 81.1151C328.508 81.4432 328.13 81.6984 327.67 81.8807C327.209 82.0597 326.682 82.1491 326.089 82.1491Z"
    class="name"
  />
  <rect x="288" width="56" height="56" rx="12" fill="#0D1703" />
  <path
    d="M288 28H344V44C344 50.6274 338.627 56 332 56H300C293.373 56 288 50.6274 288 44V28Z"
    fill="#66B814"
  />
  <rect
    x="289"
    y="1"
    width="54"
    height="54"
    rx="11"
    stroke="white"
    stroke-opacity="0.2"
    stroke-width="2"
  />
  <path
    d="M378.424 76.3821L376.783 76.5611C376.737 76.3954 376.656 76.2396 376.54 76.0938C376.427 75.9479 376.275 75.8303 376.082 75.7408C375.89 75.6513 375.655 75.6065 375.377 75.6065C375.002 75.6065 374.687 75.6877 374.432 75.8501C374.18 76.0125 374.056 76.223 374.059 76.4815C374.056 76.7036 374.137 76.8842 374.303 77.0234C374.472 77.1626 374.75 77.277 375.138 77.3665L376.44 77.6449C377.163 77.8007 377.7 78.0476 378.051 78.3857C378.406 78.7237 378.585 79.1662 378.588 79.7131C378.585 80.1937 378.444 80.6179 378.166 80.9858C377.89 81.3504 377.508 81.6354 377.017 81.8409C376.527 82.0464 375.963 82.1491 375.327 82.1491C374.392 82.1491 373.64 81.9536 373.07 81.5625C372.5 81.1681 372.16 80.6196 372.051 79.9169L373.805 79.7479C373.885 80.0926 374.054 80.3527 374.313 80.5284C374.571 80.7041 374.908 80.7919 375.322 80.7919C375.749 80.7919 376.092 80.7041 376.351 80.5284C376.613 80.3527 376.744 80.1357 376.744 79.8771C376.744 79.6584 376.659 79.4777 376.49 79.3352C376.324 79.1927 376.066 79.0833 375.715 79.0071L374.412 78.7337C373.68 78.5812 373.138 78.3243 372.786 77.9631C372.435 77.5985 372.261 77.1378 372.264 76.581C372.261 76.1103 372.389 75.7027 372.647 75.358C372.909 75.0099 373.272 74.7415 373.736 74.5526C374.203 74.3603 374.742 74.2642 375.352 74.2642C376.247 74.2642 376.951 74.4548 377.465 74.8359C377.982 75.2171 378.301 75.7325 378.424 76.3821ZM382.27 82.1541C381.786 82.1541 381.35 82.0679 380.962 81.8956C380.578 81.7199 380.273 81.4614 380.047 81.12C379.825 80.7786 379.714 80.3577 379.714 79.8572C379.714 79.4264 379.794 79.0701 379.953 78.7884C380.112 78.5066 380.329 78.2812 380.604 78.1122C380.879 77.9432 381.189 77.8156 381.534 77.7294C381.882 77.6399 382.241 77.5753 382.613 77.5355C383.06 77.4891 383.423 77.4477 383.701 77.4112C383.98 77.3714 384.182 77.3118 384.308 77.2322C384.437 77.1494 384.502 77.0218 384.502 76.8494V76.8196C384.502 76.4451 384.391 76.1551 384.169 75.9496C383.947 75.7441 383.627 75.6413 383.209 75.6413C382.768 75.6413 382.419 75.7375 382.16 75.9297C381.905 76.1219 381.733 76.349 381.643 76.6108L379.963 76.3722C380.095 75.9081 380.314 75.5204 380.619 75.2088C380.924 74.8939 381.297 74.6586 381.738 74.5028C382.178 74.3438 382.666 74.2642 383.199 74.2642C383.567 74.2642 383.933 74.3073 384.298 74.3935C384.663 74.4796 384.996 74.6222 385.297 74.821C385.599 75.0166 385.841 75.2834 386.023 75.6214C386.209 75.9595 386.302 76.3821 386.302 76.8892V82H384.571V80.951H384.512C384.402 81.1631 384.248 81.362 384.049 81.5476C383.854 81.7299 383.607 81.8774 383.309 81.9901C383.014 82.0994 382.667 82.1541 382.27 82.1541ZM382.737 80.8317C383.098 80.8317 383.411 80.7604 383.677 80.6179C383.942 80.4721 384.146 80.2798 384.288 80.0412C384.434 79.8026 384.507 79.5424 384.507 79.2607V78.3608C384.45 78.4072 384.354 78.4503 384.218 78.4901C384.086 78.5298 383.937 78.5646 383.771 78.5945C383.605 78.6243 383.441 78.6508 383.279 78.674C383.116 78.6972 382.976 78.7171 382.856 78.7337C382.588 78.7701 382.348 78.8298 382.135 78.9126C381.923 78.9955 381.756 79.1115 381.633 79.2607C381.511 79.4065 381.449 79.5954 381.449 79.8274C381.449 80.1589 381.57 80.4091 381.812 80.5781C382.054 80.7472 382.362 80.8317 382.737 80.8317ZM389.911 77.5256V82H388.111V74.3636H389.831V75.6612H389.921C390.097 75.2337 390.377 74.8939 390.761 74.642C391.149 74.3902 391.628 74.2642 392.198 74.2642C392.725 74.2642 393.184 74.3769 393.575 74.6023C393.969 74.8277 394.274 75.1541 394.49 75.5817C394.709 76.0092 394.816 76.5279 394.813 77.1378V82H393.013V77.4162C393.013 76.9058 392.881 76.5064 392.616 76.218C392.354 75.9297 391.991 75.7855 391.527 75.7855C391.212 75.7855 390.932 75.8551 390.687 75.9943C390.445 76.1302 390.254 76.3274 390.115 76.5859C389.979 76.8445 389.911 77.1577 389.911 77.5256ZM399.476 82.1342C398.876 82.1342 398.339 81.9801 397.866 81.6719C397.392 81.3636 397.017 80.9162 396.742 80.3295C396.467 79.7429 396.329 79.0303 396.329 78.1918C396.329 77.3433 396.468 76.6274 396.747 76.044C397.029 75.4574 397.408 75.0149 397.885 74.7166C398.363 74.415 398.895 74.2642 399.481 74.2642C399.929 74.2642 400.297 74.3404 400.585 74.4929C400.873 74.642 401.102 74.8227 401.271 75.0348C401.44 75.2436 401.571 75.4408 401.664 75.6264H401.738V71.8182H403.543V82H401.773V80.7969H401.664C401.571 80.9825 401.437 81.1797 401.261 81.3885C401.085 81.594 400.853 81.7696 400.565 81.9155C400.277 82.0613 399.914 82.1342 399.476 82.1342ZM399.978 80.6577C400.36 80.6577 400.684 80.5549 400.953 80.3494C401.221 80.1406 401.425 79.8506 401.564 79.4794C401.704 79.1082 401.773 78.6757 401.773 78.1818C401.773 77.688 401.704 77.2588 401.564 76.8942C401.428 76.5296 401.226 76.2462 400.958 76.044C400.693 75.8419 400.366 75.7408 399.978 75.7408C399.577 75.7408 399.243 75.8452 398.974 76.054C398.706 76.2628 398.504 76.5511 398.368 76.919C398.232 77.2869 398.164 77.7079 398.164 78.1818C398.164 78.6591 398.232 79.085 398.368 79.4595C398.507 79.8307 398.711 80.1241 398.979 80.3395C399.251 80.5516 399.584 80.6577 399.978 80.6577Z"
    class="name"
  />
  <rect x="360" width="56" height="56" rx="12" fill="#000000" />
  <path
    d="M360 28H416V44C416 50.6274 410.627 56 404 56H372C365.373 56 360 50.6274 360 44V28Z"
    fill="#8C8473"
  />
  <rect
    x="361"
    y="1"
    width="54"
    height="54"
    rx="11"
    stroke="white"
    stroke-opacity="0.2"
    stroke-width="2"
  />
  <path
    d="M441.834 77.5256V82H440.034V71.8182H441.794V75.6612H441.884C442.063 75.2304 442.339 74.8906 442.714 74.642C443.092 74.3902 443.572 74.2642 444.156 74.2642C444.686 74.2642 445.148 74.3752 445.543 74.5973C445.937 74.8194 446.242 75.1442 446.457 75.5717C446.676 75.9993 446.786 76.5213 446.786 77.1378V82H444.986V77.4162C444.986 76.9025 444.853 76.5031 444.588 76.218C444.326 75.9297 443.958 75.7855 443.484 75.7855C443.166 75.7855 442.881 75.8551 442.629 75.9943C442.381 76.1302 442.185 76.3274 442.043 76.5859C441.903 76.8445 441.834 77.1577 441.834 77.5256ZM451.951 82.1491C451.205 82.1491 450.559 81.9851 450.012 81.657C449.465 81.3288 449.041 80.8698 448.739 80.2798C448.441 79.6899 448.292 79.0005 448.292 78.2116C448.292 77.4228 448.441 76.7318 448.739 76.1385C449.041 75.5452 449.465 75.0845 450.012 74.7564C450.559 74.4283 451.205 74.2642 451.951 74.2642C452.697 74.2642 453.343 74.4283 453.89 74.7564C454.437 75.0845 454.859 75.5452 455.158 76.1385C455.459 76.7318 455.61 77.4228 455.61 78.2116C455.61 79.0005 455.459 79.6899 455.158 80.2798C454.859 80.8698 454.437 81.3288 453.89 81.657C453.343 81.9851 452.697 82.1491 451.951 82.1491ZM451.961 80.7074C452.365 80.7074 452.703 80.5964 452.975 80.3743C453.247 80.1489 453.449 79.8473 453.582 79.4695C453.718 79.0916 453.786 78.6707 453.786 78.2067C453.786 77.7393 453.718 77.3168 453.582 76.9389C453.449 76.5578 453.247 76.2545 452.975 76.0291C452.703 75.8037 452.365 75.6911 451.961 75.6911C451.547 75.6911 451.202 75.8037 450.927 76.0291C450.655 76.2545 450.451 76.5578 450.315 76.9389C450.183 77.3168 450.116 77.7393 450.116 78.2067C450.116 78.6707 450.183 79.0916 450.315 79.4695C450.451 79.8473 450.655 80.1489 450.927 80.3743C451.202 80.5964 451.547 80.7074 451.961 80.7074ZM458.937 77.5256V82H457.138V74.3636H458.858V75.6612H458.947C459.123 75.2337 459.403 74.8939 459.787 74.642C460.175 74.3902 460.654 74.2642 461.224 74.2642C461.751 74.2642 462.21 74.3769 462.601 74.6023C462.996 74.8277 463.301 75.1541 463.516 75.5817C463.735 76.0092 463.843 76.5279 463.839 77.1378V82H462.04V77.4162C462.04 76.9058 461.907 76.5064 461.642 76.218C461.38 75.9297 461.017 75.7855 460.553 75.7855C460.238 75.7855 459.958 75.8551 459.713 75.9943C459.471 76.1302 459.28 76.3274 459.141 76.5859C459.005 76.8445 458.937 77.1577 458.937 77.5256ZM469.05 82.1491C468.284 82.1491 467.623 81.9901 467.066 81.6719C466.512 81.3504 466.086 80.8963 465.788 80.3097C465.49 79.7197 465.341 79.0253 465.341 78.2266C465.341 77.4411 465.49 76.7517 465.788 76.1584C466.09 75.5618 466.511 75.0978 467.051 74.7663C467.591 74.4316 468.226 74.2642 468.955 74.2642C469.426 74.2642 469.87 74.3404 470.287 74.4929C470.708 74.642 471.08 74.8741 471.401 75.1889C471.726 75.5038 471.981 75.9048 472.167 76.392C472.352 76.8759 472.445 77.4527 472.445 78.1222V78.674H466.186V77.4609H470.72C470.717 77.1162 470.642 76.8097 470.496 76.5412C470.35 76.2694 470.147 76.0556 469.885 75.8999C469.626 75.7441 469.325 75.6662 468.98 75.6662C468.612 75.6662 468.289 75.7557 468.01 75.9347C467.732 76.1103 467.515 76.3423 467.359 76.6307C467.207 76.9157 467.129 77.2289 467.126 77.5703V78.6293C467.126 79.0734 467.207 79.4545 467.369 79.7727C467.532 80.0876 467.759 80.3295 468.05 80.4986C468.342 80.6643 468.683 80.7472 469.074 80.7472C469.336 80.7472 469.573 80.7107 469.785 80.6378C469.997 80.5616 470.181 80.4505 470.337 80.3047C470.493 80.1589 470.611 79.9782 470.69 79.7628L472.371 79.9517C472.265 80.3958 472.062 80.7836 471.764 81.1151C471.469 81.4432 471.091 81.6984 470.631 81.8807C470.17 82.0597 469.643 82.1491 469.05 82.1491ZM474.868 84.8636C474.622 84.8636 474.395 84.8438 474.186 84.804C473.981 84.7675 473.817 84.7244 473.694 84.6747L474.112 83.2727C474.374 83.349 474.607 83.3854 474.813 83.3821C475.018 83.3788 475.199 83.3142 475.355 83.1882C475.514 83.0656 475.648 82.8601 475.757 82.5717L475.912 82.1591L473.142 74.3636H475.051L476.811 80.1307H476.891L478.656 74.3636H480.57L477.512 82.9247C477.37 83.3291 477.181 83.6754 476.946 83.9638C476.71 84.2554 476.422 84.4775 476.081 84.63C475.743 84.7857 475.338 84.8636 474.868 84.8636Z"
    class="name"
  />
  <rect x="432" width="56" height="56" rx="12" fill="#FFFCF5" />
  <path
    d="M432 28H488V44C488 50.6274 482.627 56 476 56H444C437.373 56 432 50.6274 432 44V28Z"
    fill="#FFCC66"
  />
  <rect
    x="433"
    y="1"
    width="54"
    height="54"
    rx="11"
    stroke="black"
    stroke-opacity="0.2"
    stroke-width="2"
  />
  <path
    d="M520.845 76.3821L519.204 76.5611C519.158 76.3954 519.077 76.2396 518.961 76.0938C518.848 75.9479 518.696 75.8303 518.503 75.7408C518.311 75.6513 518.076 75.6065 517.797 75.6065C517.423 75.6065 517.108 75.6877 516.853 75.8501C516.601 76.0125 516.477 76.223 516.48 76.4815C516.477 76.7036 516.558 76.8842 516.724 77.0234C516.893 77.1626 517.171 77.277 517.559 77.3665L518.861 77.6449C519.584 77.8007 520.121 78.0476 520.472 78.3857C520.827 78.7237 521.006 79.1662 521.009 79.7131C521.006 80.1937 520.865 80.6179 520.586 80.9858C520.311 81.3504 519.929 81.6354 519.438 81.8409C518.948 82.0464 518.384 82.1491 517.748 82.1491C516.813 82.1491 516.061 81.9536 515.491 81.5625C514.921 81.1681 514.581 80.6196 514.471 79.9169L516.226 79.7479C516.306 80.0926 516.475 80.3527 516.733 80.5284C516.992 80.7041 517.328 80.7919 517.743 80.7919C518.17 80.7919 518.513 80.7041 518.772 80.5284C519.034 80.3527 519.165 80.1357 519.165 79.8771C519.165 79.6584 519.08 79.4777 518.911 79.3352C518.745 79.1927 518.487 79.0833 518.135 79.0071L516.833 78.7337C516.1 78.5812 515.559 78.3243 515.207 77.9631C514.856 77.5985 514.682 77.1378 514.685 76.581C514.682 76.1103 514.809 75.7027 515.068 75.358C515.33 75.0099 515.693 74.7415 516.157 74.5526C516.624 74.3603 517.163 74.2642 517.773 74.2642C518.667 74.2642 519.372 74.4548 519.885 74.8359C520.403 75.2171 520.722 75.7325 520.845 76.3821ZM524.293 77.5256V82H522.493V74.3636H524.213V75.6612H524.303C524.478 75.2337 524.758 74.8939 525.143 74.642C525.531 74.3902 526.01 74.2642 526.58 74.2642C527.107 74.2642 527.566 74.3769 527.957 74.6023C528.351 74.8277 528.656 75.1541 528.872 75.5817C529.09 76.0092 529.198 76.5279 529.195 77.1378V82H527.395V77.4162C527.395 76.9058 527.262 76.5064 526.997 76.218C526.735 75.9297 526.373 75.7855 525.909 75.7855C525.594 75.7855 525.314 75.8551 525.068 75.9943C524.826 76.1302 524.636 76.3274 524.497 76.5859C524.361 76.8445 524.293 77.1577 524.293 77.5256ZM534.355 82.1491C533.61 82.1491 532.963 81.9851 532.416 81.657C531.869 81.3288 531.445 80.8698 531.144 80.2798C530.845 79.6899 530.696 79.0005 530.696 78.2116C530.696 77.4228 530.845 76.7318 531.144 76.1385C531.445 75.5452 531.869 75.0845 532.416 74.7564C532.963 74.4283 533.61 74.2642 534.355 74.2642C535.101 74.2642 535.747 74.4283 536.294 74.7564C536.841 75.0845 537.264 75.5452 537.562 76.1385C537.864 76.7318 538.014 77.4228 538.014 78.2116C538.014 79.0005 537.864 79.6899 537.562 80.2798C537.264 80.8698 536.841 81.3288 536.294 81.657C535.747 81.9851 535.101 82.1491 534.355 82.1491ZM534.365 80.7074C534.77 80.7074 535.108 80.5964 535.379 80.3743C535.651 80.1489 535.853 79.8473 535.986 79.4695C536.122 79.0916 536.19 78.6707 536.19 78.2067C536.19 77.7393 536.122 77.3168 535.986 76.9389C535.853 76.5578 535.651 76.2545 535.379 76.0291C535.108 75.8037 534.77 75.6911 534.365 75.6911C533.951 75.6911 533.606 75.8037 533.331 76.0291C533.059 76.2545 532.856 76.5578 532.72 76.9389C532.587 77.3168 532.521 77.7393 532.521 78.2067C532.521 78.6707 532.587 79.0916 532.72 79.4695C532.856 79.8473 533.059 80.1489 533.331 80.3743C533.606 80.5964 533.951 80.7074 534.365 80.7074ZM540.899 82L538.741 74.3636H540.576L541.918 79.733H541.988L543.36 74.3636H545.175L546.547 79.7031H546.621L547.944 74.3636L549.783 74.3636L547.621 82H545.746L544.315 76.8395H544.21L542.778 82H540.899Z"
    class="name"
  />
  <rect x="504" width="56" height="56" rx="12" fill="white" />
  <path
    d="M504 28H560V44C560 50.6274 554.627 56 548 56H516C509.373 56 504 50.6274 504 44V28Z"
    fill="#CCCCCC"
  />
  <rect
    x="505"
    y="1"
    width="54"
    height="54"
    rx="11"
    stroke="black"
    stroke-opacity="0.2"
    stroke-width="2"
  />
</svg>
