<svg
  width="216"
  height="64"
  viewBox="0 0 216 64"
  fill="none"
  xmlns="http://www.w3.org/2000/svg"
>
  <style>
    .background {
      fill: #000;
    }
    .foreground {
      fill: #fff;
    }
    @media (prefers-color-scheme: dark) {
      .background {
        fill: #fff;
      }
      .foreground {
        fill: #000;
      }
    }
  </style>
  <rect width="216" height="64" rx="12" class="background" />
  <path
    d="M57.5 33.25V43.25C57.5 43.913 57.2366 44.5489 56.7678 45.0178C56.2989 45.4866 55.663 45.75 55 45.75H25C24.337 45.75 23.7011 45.4866 23.2322 45.0178C22.7634 44.5489 22.5 43.913 22.5 43.25V33.25C22.5 32.587 22.7634 31.9511 23.2322 31.4822C23.7011 31.0134 24.337 30.75 25 30.75H31.25C31.5815 30.75 31.8995 30.8817 32.1339 31.1161C32.3683 31.3505 32.5 31.6685 32.5 32C32.5 32.3315 32.3683 32.6495 32.1339 32.8839C31.8995 33.1183 31.5815 33.25 31.25 33.25H25V43.25H55V33.25H48.75C48.4185 33.25 48.1005 33.1183 47.8661 32.8839C47.6317 32.6495 47.5 32.3315 47.5 32C47.5 31.6685 47.6317 31.3505 47.8661 31.1161C48.1005 30.8817 48.4185 30.75 48.75 30.75H55C55.663 30.75 56.2989 31.0134 56.7678 31.4822C57.2366 31.9511 57.5 32.587 57.5 33.25ZM39.1156 32.8844C39.2317 33.0006 39.3696 33.0928 39.5213 33.1557C39.6731 33.2186 39.8357 33.251 40 33.251C40.1643 33.251 40.3269 33.2186 40.4787 33.1557C40.6304 33.0928 40.7683 33.0006 40.8844 32.8844L48.3844 25.3844C48.6189 25.1498 48.7507 24.8317 48.7507 24.5C48.7507 24.1683 48.6189 23.8502 48.3844 23.6156C48.1498 23.3811 47.8317 23.2493 47.5 23.2493C47.1683 23.2493 46.8502 23.3811 46.6156 23.6156L41.25 28.9828V15.75C41.25 15.4185 41.1183 15.1005 40.8839 14.8661C40.6495 14.6317 40.3315 14.5 40 14.5C39.6685 14.5 39.3505 14.6317 39.1161 14.8661C38.8817 15.1005 38.75 15.4185 38.75 15.75V28.9828L33.3844 23.6156C33.1498 23.3811 32.8317 23.2493 32.5 23.2493C32.1683 23.2493 31.8502 23.3811 31.6156 23.6156C31.3811 23.8502 31.2493 24.1683 31.2493 24.5C31.2493 24.8317 31.3811 25.1498 31.6156 25.3844L39.1156 32.8844ZM51.25 38.25C51.25 37.8792 51.14 37.5166 50.934 37.2083C50.728 36.9 50.4351 36.6596 50.0925 36.5177C49.7499 36.3758 49.3729 36.3387 49.0092 36.411C48.6455 36.4834 48.3114 36.662 48.0492 36.9242C47.787 37.1864 47.6084 37.5205 47.536 37.8842C47.4637 38.2479 47.5008 38.6249 47.6427 38.9675C47.7846 39.3101 48.025 39.603 48.3333 39.809C48.6416 40.015 49.0042 40.125 49.375 40.125C49.8723 40.125 50.3492 39.9275 50.7008 39.5758C51.0525 39.2242 51.25 38.7473 51.25 38.25Z"
    class="foreground"
  />
  <path
    d="M88.4148 28.6193C88.2727 28.1591 88.0767 27.7472 87.8267 27.3835C87.5824 27.0142 87.2869 26.6989 86.9403 26.4375C86.5994 26.1761 86.2074 25.9801 85.7642 25.8494C85.321 25.7131 84.8381 25.6449 84.3153 25.6449C83.3778 25.6449 82.5426 25.8807 81.8097 26.3523C81.0767 26.8239 80.5 27.517 80.0795 28.4318C79.6648 29.3409 79.4574 30.4489 79.4574 31.7557C79.4574 33.0739 79.6648 34.1903 80.0795 35.1051C80.4943 36.0199 81.071 36.7159 81.8097 37.1932C82.5483 37.6648 83.4063 37.9006 84.3835 37.9006C85.2699 37.9006 86.0369 37.7301 86.6847 37.3892C87.3381 37.0483 87.8409 36.5653 88.1932 35.9403C88.5455 35.3097 88.7216 34.571 88.7216 33.7244L89.4375 33.8352H84.6989V31.3636L91.7812 31.3636V33.4602C91.7812 34.9545 91.4631 36.2472 90.8267 37.3381C90.1903 38.429 89.3153 39.2699 88.2017 39.8608C87.0881 40.446 85.8097 40.7386 84.3665 40.7386C82.7585 40.7386 81.3466 40.3778 80.1307 39.6562C78.9205 38.929 77.9744 37.8977 77.2926 36.5625C76.6165 35.2216 76.2784 33.6307 76.2784 31.7898C76.2784 30.3807 76.4773 29.1222 76.875 28.0142C77.2784 26.9062 77.8409 25.9659 78.5625 25.1932C79.2841 24.4148 80.1307 23.8239 81.1023 23.4205C82.0739 23.0114 83.1307 22.8068 84.2727 22.8068C85.2386 22.8068 86.1392 22.9489 86.9744 23.233C87.8097 23.5114 88.5511 23.9091 89.1989 24.4261C89.8523 24.9432 90.3892 25.5568 90.8097 26.267C91.2301 26.9773 91.5057 27.7614 91.6364 28.6193L88.4148 28.6193ZM100.498 40.7557C99.1854 40.7557 98.0518 40.483 97.0973 39.9375C96.1484 39.3864 95.4183 38.608 94.907 37.6023C94.3956 36.5909 94.1399 35.4006 94.1399 34.0312C94.1399 32.6847 94.3956 31.5028 94.907 30.4858C95.424 29.4631 96.1456 28.6676 97.0717 28.0994C97.9979 27.5256 99.0859 27.2386 100.336 27.2386C101.143 27.2386 101.904 27.3693 102.62 27.6307C103.342 27.8864 103.978 28.2841 104.529 28.8239C105.086 29.3636 105.523 30.0511 105.842 30.8864C106.16 31.7159 106.319 32.7045 106.319 33.8523V34.7983L95.5888 34.7983V32.7188L103.362 32.7188C103.356 32.1278 103.228 31.6023 102.978 31.142C102.728 30.6761 102.379 30.3097 101.93 30.0426C101.487 29.7756 100.969 29.642 100.379 29.642C99.7479 29.642 99.1939 29.7955 98.7166 30.1023C98.2393 30.4034 97.8672 30.8011 97.6001 31.2955C97.3388 31.7841 97.2053 32.321 97.1996 32.9062V34.7216C97.1996 35.483 97.3388 36.1364 97.6172 36.6818C97.8956 37.2216 98.2848 37.6364 98.7848 37.9261C99.2848 38.2102 99.87 38.3523 100.54 38.3523C100.989 38.3523 101.396 38.2898 101.759 38.1648C102.123 38.0341 102.438 37.8438 102.705 37.5938C102.972 37.3438 103.174 37.0341 103.31 36.6648L106.191 36.9886C106.009 37.75 105.663 38.4148 105.151 38.983C104.646 39.5455 103.998 39.983 103.208 40.2955C102.418 40.6023 101.515 40.7557 100.498 40.7557ZM115.466 27.4091V29.7955H107.94V27.4091H115.466ZM109.798 24.2727H112.884V36.5625C112.884 36.9773 112.946 37.2955 113.071 37.517C113.202 37.733 113.372 37.8807 113.582 37.9602C113.793 38.0398 114.026 38.0795 114.281 38.0795C114.474 38.0795 114.651 38.0653 114.81 38.0369C114.974 38.0085 115.099 37.983 115.185 37.9602L115.705 40.3722C115.54 40.429 115.304 40.4915 114.997 40.5597C114.696 40.6278 114.327 40.6676 113.889 40.679C113.116 40.7017 112.42 40.5852 111.801 40.3295C111.182 40.0682 110.69 39.6648 110.327 39.1193C109.969 38.5739 109.793 37.892 109.798 37.0739V24.2727ZM124.136 40.5V23.0455H127.298V37.8494H134.985V40.5L124.136 40.5ZM141.36 40.7642C140.531 40.7642 139.783 40.6165 139.119 40.321C138.46 40.0199 137.937 39.5767 137.55 38.9915C137.17 38.4062 136.979 37.6847 136.979 36.8267C136.979 36.0881 137.116 35.4773 137.388 34.9943C137.661 34.5114 138.033 34.125 138.505 33.8352C138.977 33.5455 139.508 33.3267 140.099 33.179C140.695 33.0256 141.312 32.9148 141.948 32.8466C142.715 32.767 143.337 32.696 143.815 32.6335C144.292 32.5653 144.638 32.4631 144.854 32.3267C145.076 32.1847 145.187 31.9659 145.187 31.6705V31.6193C145.187 30.9773 144.996 30.4801 144.616 30.1278C144.235 29.7756 143.687 29.5994 142.971 29.5994C142.215 29.5994 141.616 29.7642 141.173 30.0938C140.735 30.4233 140.44 30.8125 140.286 31.2614L137.406 30.8523C137.633 30.0568 138.008 29.392 138.531 28.858C139.053 28.3182 139.692 27.9148 140.448 27.6477C141.204 27.375 142.039 27.2386 142.954 27.2386C143.585 27.2386 144.212 27.3125 144.837 27.4602C145.462 27.608 146.033 27.8523 146.55 28.1932C147.067 28.5284 147.482 28.9858 147.795 29.5653C148.113 30.1449 148.272 30.8693 148.272 31.7386V40.5H145.306V38.7017H145.204C145.016 39.0653 144.752 39.4062 144.411 39.7244C144.076 40.0369 143.653 40.2898 143.141 40.483C142.636 40.6705 142.042 40.7642 141.36 40.7642ZM142.161 38.4972C142.781 38.4972 143.317 38.375 143.772 38.1307C144.227 37.8807 144.576 37.5511 144.82 37.142C145.07 36.733 145.195 36.2869 145.195 35.804V34.2614C145.099 34.3409 144.934 34.4148 144.701 34.483C144.474 34.5511 144.218 34.6108 143.934 34.6619C143.65 34.7131 143.369 34.7585 143.09 34.7983C142.812 34.8381 142.57 34.8722 142.366 34.9006C141.906 34.9631 141.494 35.0653 141.13 35.2074C140.766 35.3494 140.479 35.5483 140.269 35.804C140.059 36.054 139.954 36.3778 139.954 36.7756C139.954 37.3438 140.161 37.7727 140.576 38.0625C140.991 38.3523 141.519 38.4972 142.161 38.4972ZM157.911 27.4091V29.7955H150.386V27.4091L157.911 27.4091ZM152.244 24.2727H155.329V36.5625C155.329 36.9773 155.391 37.2955 155.516 37.517C155.647 37.733 155.817 37.8807 156.028 37.9602C156.238 38.0398 156.471 38.0795 156.727 38.0795C156.92 38.0795 157.096 38.0653 157.255 38.0369C157.42 38.0085 157.545 37.983 157.63 37.9602L158.15 40.3722C157.985 40.429 157.749 40.4915 157.442 40.5597C157.141 40.6278 156.772 40.6676 156.335 40.679C155.562 40.7017 154.866 40.5852 154.246 40.3295C153.627 40.0682 153.136 39.6648 152.772 39.1193C152.414 38.5739 152.238 37.892 152.244 37.0739V24.2727ZM166.146 40.7557C164.834 40.7557 163.7 40.483 162.746 39.9375C161.797 39.3864 161.067 38.608 160.555 37.6023C160.044 36.5909 159.788 35.4006 159.788 34.0313C159.788 32.6847 160.044 31.5028 160.555 30.4858C161.072 29.4631 161.794 28.6676 162.72 28.0994C163.646 27.5256 164.734 27.2386 165.984 27.2386C166.791 27.2386 167.553 27.3693 168.268 27.6307C168.99 27.8864 169.626 28.2841 170.178 28.8239C170.734 29.3636 171.172 30.0511 171.49 30.8864C171.808 31.7159 171.967 32.7045 171.967 33.8523V34.7983H161.237V32.7188H169.01C169.004 32.1278 168.876 31.6023 168.626 31.142C168.376 30.6761 168.027 30.3097 167.578 30.0426C167.135 29.7756 166.618 29.642 166.027 29.642C165.396 29.642 164.842 29.7955 164.365 30.1023C163.888 30.4034 163.516 30.8011 163.249 31.2955C162.987 31.7841 162.854 32.321 162.848 32.9063V34.7216C162.848 35.483 162.987 36.1364 163.266 36.6818C163.544 37.2216 163.933 37.6364 164.433 37.9261C164.933 38.2102 165.518 38.3523 166.189 38.3523C166.638 38.3523 167.044 38.2898 167.408 38.1648C167.771 38.0341 168.087 37.8438 168.354 37.5938C168.621 37.3438 168.822 37.0341 168.959 36.6648L171.839 36.9886C171.658 37.75 171.311 38.4148 170.8 38.983C170.294 39.5455 169.646 39.983 168.857 40.2955C168.067 40.6023 167.163 40.7557 166.146 40.7557ZM184.924 30.8693L182.112 31.1761C182.032 30.892 181.893 30.625 181.694 30.375C181.501 30.125 181.239 29.9233 180.91 29.7699C180.58 29.6165 180.177 29.5398 179.7 29.5398C179.058 29.5398 178.518 29.679 178.08 29.9574C177.648 30.2358 177.435 30.5966 177.441 31.0398C177.435 31.4205 177.575 31.7301 177.859 31.9688C178.148 32.2074 178.626 32.4034 179.29 32.5568L181.523 33.0341C182.762 33.3011 183.683 33.7244 184.285 34.304C184.893 34.8835 185.2 35.642 185.205 36.5795C185.2 37.4034 184.958 38.1307 184.481 38.7614C184.009 39.3864 183.353 39.875 182.512 40.2273C181.671 40.5795 180.705 40.7557 179.614 40.7557C178.012 40.7557 176.722 40.4205 175.745 39.75C174.768 39.0739 174.185 38.1335 173.998 36.929L177.006 36.6392C177.143 37.2301 177.433 37.6761 177.876 37.9773C178.319 38.2784 178.896 38.429 179.606 38.429C180.339 38.429 180.927 38.2784 181.37 37.9773C181.819 37.6761 182.043 37.304 182.043 36.8608C182.043 36.4858 181.898 36.1761 181.609 35.9318C181.325 35.6875 180.881 35.5 180.279 35.3693L178.046 34.9006C176.79 34.6392 175.862 34.1989 175.259 33.5795C174.657 32.9545 174.359 32.1648 174.364 31.2102C174.359 30.4034 174.577 29.7045 175.021 29.1136C175.469 28.517 176.092 28.0568 176.887 27.733C177.688 27.4034 178.612 27.2386 179.657 27.2386C181.191 27.2386 182.398 27.5653 183.279 28.2188C184.165 28.8722 184.714 29.7557 184.924 30.8693ZM194.286 27.4091V29.7955L186.761 29.7955V27.4091H194.286ZM188.619 24.2727H191.704V36.5625C191.704 36.9773 191.766 37.2955 191.891 37.517C192.022 37.733 192.192 37.8807 192.403 37.9602C192.613 38.0398 192.846 38.0795 193.102 38.0795C193.295 38.0795 193.471 38.0653 193.63 38.0369C193.795 38.0085 193.92 37.983 194.005 37.9602L194.525 40.3722C194.36 40.429 194.124 40.4915 193.817 40.5597C193.516 40.6278 193.147 40.6676 192.71 40.679C191.937 40.7017 191.241 40.5852 190.621 40.3295C190.002 40.0682 189.511 39.6648 189.147 39.1193C188.789 38.5739 188.613 37.892 188.619 37.0739V24.2727Z"
    class="foreground"
  />
</svg>
