<svg
  width="167"
  height="127"
  viewBox="0 0 167 127"
  fill="none"
  xmlns="http://www.w3.org/2000/svg"
>
  <style>
    .fill {
      fill: #000;
    }
    @media (prefers-color-scheme: dark) {
      .fill {
        fill: #fff;
      }
    }
  </style>
  <g clip-path="url(#clip0_30_241)">
    <path
      d="M6.6544 24C5.20368 24 3.98423 23.7792 2.99606 23.3377C2.00788 22.8962 1.2615 22.2444 0.756899 21.3824C0.2523 20.5204 0 19.4271 0 18.1025C0 17.4928 0.021025 16.9356 0.063075 16.431C0.105125 15.9054 0.1682 15.3903 0.2523 14.8857C0.525624 13.2037 0.893561 11.8265 1.35611 10.7543C1.83968 9.682 2.4389 8.85151 3.15375 8.26281C3.88962 7.67411 4.76215 7.26413 5.77135 7.03285C6.80158 6.80158 8 6.68594 9.36662 6.68594C11.1537 6.68594 12.5309 6.91721 13.498 7.37976C14.4652 7.82129 15.1275 8.49409 15.4849 9.39816C15.8423 10.3022 16.021 11.4586 16.021 12.8673C16.021 13.3719 15.9895 13.9185 15.9264 14.5072C15.8844 15.0749 15.8213 15.6636 15.7372 16.2733C15.4218 18.3127 14.8962 19.9001 14.1603 21.0355C13.4244 22.1708 12.4468 22.9488 11.2273 23.3693C10.0079 23.7898 8.48357 24 6.6544 24ZM7.159 20.247C7.76873 20.247 8.28384 20.184 8.70434 20.0578C9.14586 19.9106 9.50328 19.6794 9.77661 19.364C10.071 19.0276 10.3127 18.5545 10.502 17.9448C10.7122 17.3141 10.9014 16.5256 11.0696 15.5795C11.1537 14.9908 11.2168 14.4652 11.2589 14.0026C11.3219 13.5191 11.3535 13.067 11.3535 12.6465C11.3535 11.8055 11.1537 11.2168 10.7543 10.8804C10.3548 10.523 9.69251 10.3443 8.76741 10.3443C8.13666 10.3443 7.61104 10.4179 7.19054 10.565C6.77004 10.7122 6.41261 10.975 6.11827 11.3535C5.82392 11.7319 5.57162 12.2681 5.36137 12.9619C5.17214 13.6557 4.99343 14.5283 4.82523 15.5795C4.76216 16.021 4.70959 16.431 4.66754 16.8095C4.64652 17.1879 4.63601 17.5453 4.63601 17.8817C4.63601 18.5125 4.73062 18.9961 4.91984 19.3325C5.13009 19.6689 5.41393 19.9106 5.77135 20.0578C6.1498 20.184 6.61235 20.247 7.159 20.247Z"
      fill="#666666"
    />
    <path
      d="M17.4471 23.8108L20.0963 6.87517H23.9754L24.5115 8.60972C25.2474 8.06308 26.0989 7.60053 27.066 7.22208C28.0542 6.84363 29.1475 6.6544 30.3459 6.6544C31.292 6.6544 32.0805 6.8226 32.7112 7.159C33.342 7.4954 33.815 7.94744 34.1304 8.51511C34.4668 9.08279 34.635 9.73456 34.635 10.4704C34.635 10.8279 34.614 11.2378 34.5719 11.7004C34.5509 12.1629 34.4458 12.9198 34.2566 13.9711L32.7112 23.8108H28.0437L29.5575 14.1288C29.6206 13.6873 29.6626 13.3614 29.6836 13.1511C29.7257 12.9409 29.7467 12.7727 29.7467 12.6465C29.7467 12.0999 29.589 11.6689 29.2736 11.3535C28.9583 11.0171 28.4327 10.8489 27.6968 10.8489C26.9819 10.8489 26.3196 10.9855 25.7099 11.2589C25.1002 11.5112 24.5115 11.8476 23.9438 12.2681L22.1147 23.8108H17.4471Z"
      fill="#666666"
    />
    <path
      d="M39.6761 4.38371C39.4869 4.38371 39.3397 4.33114 39.2346 4.22602C39.1294 4.09987 39.0979 3.94218 39.1399 3.75296L39.613 0.662287C39.6971 0.220762 39.9494 0 40.3699 0H43.9652C44.1754 0 44.3121 0.0630753 44.3752 0.189226C44.4593 0.315375 44.4908 0.473063 44.4698 0.662287L43.9967 3.75296C43.9126 4.17346 43.6708 4.38371 43.2713 4.38371H39.6761ZM36.0493 23.8108L38.6984 6.87517H43.3975L40.7168 23.8108H36.0493Z"
      fill="#666666"
    />
    <path
      d="M51.3735 24C49.9228 24 48.7033 23.7792 47.7152 23.3377C46.727 22.8962 45.9806 22.2444 45.476 21.3824C44.9714 20.5204 44.7191 19.4271 44.7191 18.1025C44.7191 17.4928 44.7401 16.9356 44.7822 16.431C44.8242 15.9054 44.8873 15.3903 44.9714 14.8857C45.2447 13.2037 45.6127 11.8265 46.0752 10.7543C46.5588 9.682 47.158 8.85151 47.8729 8.26281C48.6087 7.67411 49.4813 7.26413 50.4905 7.03285C51.5207 6.80158 52.7191 6.68594 54.0857 6.68594C55.8729 6.68594 57.25 6.91721 58.2171 7.37976C59.1843 7.82129 59.8466 8.49409 60.204 9.39816C60.5614 10.3022 60.7401 11.4586 60.7401 12.8673C60.7401 13.3719 60.7086 13.9185 60.6455 14.5072C60.6035 15.0749 60.5404 15.6636 60.4563 16.2733C60.1409 18.3127 59.6153 19.9001 58.8794 21.0355C58.1436 22.1708 57.1659 22.9488 55.9464 23.3693C54.727 23.7898 53.2027 24 51.3735 24ZM51.8781 20.247C52.4878 20.247 53.003 20.184 53.4235 20.0578C53.865 19.9106 54.2224 19.6794 54.4957 19.364C54.7901 19.0276 55.0319 18.5545 55.2211 17.9448C55.4313 17.3141 55.6206 16.5256 55.7888 15.5795C55.8729 14.9908 55.9359 14.4652 55.978 14.0026C56.0411 13.5191 56.0726 13.067 56.0726 12.6465C56.0726 11.8055 55.8729 11.2168 55.4734 10.8804C55.0739 10.523 54.4116 10.3443 53.4865 10.3443C52.8558 10.3443 52.3302 10.4179 51.9097 10.565C51.4892 10.7122 51.1317 10.975 50.8374 11.3535C50.543 11.7319 50.2907 12.2681 50.0805 12.9619C49.8913 13.6557 49.7125 14.5283 49.5443 15.5795C49.4813 16.021 49.4287 16.431 49.3867 16.8095C49.3656 17.1879 49.3551 17.5453 49.3551 17.8817C49.3551 18.5125 49.4497 18.9961 49.639 19.3325C49.8492 19.6689 50.133 19.9106 50.4905 20.0578C50.8689 20.184 51.3315 20.247 51.8781 20.247Z"
      fill="#666666"
    />
    <path
      d="M62.1662 23.8108L64.8154 6.87517H68.6945L69.2306 8.60972C69.9665 8.06308 70.818 7.60053 71.7851 7.22208C72.7733 6.84363 73.8666 6.6544 75.065 6.6544C76.0112 6.6544 76.7996 6.8226 77.4303 7.159C78.0611 7.4954 78.5342 7.94744 78.8495 8.51511C79.1859 9.08279 79.3541 9.73456 79.3541 10.4704C79.3541 10.8279 79.3331 11.2378 79.2911 11.7004C79.27 12.1629 79.1649 12.9198 78.9757 13.9711L77.4303 23.8108H72.7628L74.2766 14.1288C74.3397 13.6873 74.3817 13.3614 74.4027 13.1511C74.4448 12.9409 74.4658 12.7727 74.4658 12.6465C74.4658 12.0999 74.3081 11.6689 73.9928 11.3535C73.6774 11.0171 73.1518 10.8489 72.4159 10.8489C71.701 10.8489 71.0388 10.9855 70.429 11.2589C69.8193 11.5112 69.2306 11.8476 68.6629 12.2681L66.8338 23.8108H62.1662Z"
      fill="#666666"
    />
    <path
      d="M88.1261 24C86.6754 24 85.456 23.7792 84.4678 23.3377C83.4796 22.8962 82.7332 22.2444 82.2286 21.3824C81.724 20.5204 81.4717 19.4271 81.4717 18.1025C81.4717 17.4928 81.4928 16.9356 81.5348 16.431C81.5769 15.9054 81.6399 15.3903 81.724 14.8857C81.9974 13.2037 82.3653 11.8265 82.8279 10.7543C83.3114 9.682 83.9106 8.85151 84.6255 8.26281C85.3614 7.67411 86.2339 7.26413 87.2431 7.03285C88.2733 6.80158 89.4717 6.68594 90.8384 6.68594C92.6255 6.68594 94.0026 6.91721 94.9698 7.37976C95.9369 7.82129 96.5992 8.49409 96.9566 9.39816C97.3141 10.3022 97.4928 11.4586 97.4928 12.8673C97.4928 13.3719 97.4612 13.9185 97.3982 14.5072C97.3561 15.0749 97.293 15.6636 97.2089 16.2733C96.8935 18.3127 96.3679 19.9001 95.6321 21.0355C94.8962 22.1708 93.9185 22.9488 92.6991 23.3693C91.4796 23.7898 89.9553 24 88.1261 24ZM88.6307 20.247C89.2405 20.247 89.7556 20.184 90.1761 20.0578C90.6176 19.9106 90.975 19.6794 91.2484 19.364C91.5427 19.0276 91.7845 18.5545 91.9737 17.9448C92.184 17.3141 92.3732 16.5256 92.5414 15.5795C92.6255 14.9908 92.6886 14.4652 92.7306 14.0026C92.7937 13.5191 92.8252 13.067 92.8252 12.6465C92.8252 11.8055 92.6255 11.2168 92.226 10.8804C91.8265 10.523 91.1643 10.3443 90.2392 10.3443C89.6084 10.3443 89.0828 10.4179 88.6623 10.565C88.2418 10.7122 87.8844 10.975 87.59 11.3535C87.2957 11.7319 87.0434 12.2681 86.8331 12.9619C86.6439 13.6557 86.4652 14.5283 86.297 15.5795C86.2339 16.021 86.1813 16.431 86.1393 16.8095C86.1183 17.1879 86.1077 17.5453 86.1077 17.8817C86.1077 18.5125 86.2024 18.9961 86.3916 19.3325C86.6018 19.6689 86.8857 19.9106 87.2431 20.0578C87.6215 20.184 88.0841 20.247 88.6307 20.247Z"
      class="fill"
    />
    <path
      d="M105.605 24C104.911 24 104.249 23.979 103.618 23.9369C102.987 23.9159 102.377 23.8738 101.789 23.8108C101.2 23.7477 100.653 23.6636 100.149 23.5585C99.6652 23.4534 99.2342 23.3482 98.8558 23.2431L99.2973 20.4993H106.677C107.224 20.4993 107.665 20.3942 108.002 20.184C108.359 19.9737 108.58 19.6689 108.664 19.2694L108.759 18.5756C108.78 18.4704 108.79 18.3968 108.79 18.3548C108.79 18.2917 108.79 18.2392 108.79 18.1971C108.79 17.5664 108.349 17.251 107.465 17.251H104.943C104.017 17.251 103.187 17.1353 102.451 16.9041C101.715 16.6518 101.137 16.2733 100.716 15.7687C100.317 15.2641 100.117 14.6124 100.117 13.8134C100.117 13.6032 100.128 13.3824 100.149 13.1511C100.17 12.8988 100.201 12.6465 100.243 12.3942L100.433 11.1958C100.601 10.3127 100.916 9.53482 101.379 8.86202C101.862 8.18923 102.577 7.6636 103.523 7.28515C104.49 6.88568 105.784 6.68594 107.402 6.68594C108.075 6.68594 108.801 6.72799 109.579 6.81209C110.377 6.87516 111.155 6.96978 111.912 7.09593C112.669 7.20105 113.321 7.3272 113.868 7.47438L113.395 10.2181H106.488C105.878 10.2181 105.426 10.3233 105.132 10.5335C104.858 10.7227 104.68 11.0486 104.596 11.5112L104.501 11.9842C104.459 12.1314 104.427 12.2576 104.406 12.3627C104.406 12.4678 104.406 12.5624 104.406 12.6465C104.406 12.9198 104.511 13.1301 104.722 13.2773C104.932 13.4244 105.31 13.498 105.857 13.498H108.695C110.041 13.498 111.113 13.8029 111.912 14.4126C112.732 15.0013 113.142 15.8213 113.142 16.8725C113.142 17.0828 113.132 17.3035 113.111 17.5348C113.111 17.7661 113.09 17.9974 113.048 18.2286L112.827 19.7109C112.575 21.2878 111.818 22.4021 110.556 23.0539C109.295 23.6846 107.644 24 105.605 24Z"
      class="fill"
    />
    <path
      d="M13.5909 109.568L13.5568 94.6705H15.5341L34.3523 73.6364H48.7727L25.625 99.4091H23.0682L13.5909 109.568ZM2.34091 126L2.34091 56.1818H14.6818L14.6818 126H2.34091ZM35.2045 126L18.1591 102.17L26.4773 93.4773L49.9659 126L35.2045 126ZM69.3381 56.1818L69.3381 126H56.9972L56.9972 56.1818L69.3381 56.1818ZM97.0966 127.057C93.7784 127.057 90.7898 126.466 88.1307 125.284C85.4943 124.08 83.4034 122.307 81.858 119.966C80.3352 117.625 79.5739 114.739 79.5739 111.307C79.5739 108.352 80.1193 105.909 81.2102 103.977C82.3011 102.045 83.7898 100.5 85.6761 99.3409C87.5625 98.1818 89.6875 97.3068 92.0511 96.7159C94.4375 96.1023 96.9034 95.6591 99.4489 95.3864C102.517 95.0682 105.006 94.7841 106.915 94.5341C108.824 94.2614 110.21 93.8523 111.074 93.3068C111.96 92.7386 112.403 91.8636 112.403 90.6818V90.4773C112.403 87.9091 111.642 85.9205 110.119 84.5114C108.597 83.1023 106.403 82.3977 103.54 82.3977C100.517 82.3977 98.1193 83.0568 96.3466 84.375C94.5966 85.6932 93.4148 87.25 92.8011 89.0455L81.2784 87.4091C82.1875 84.2273 83.6875 81.5682 85.7784 79.4318C87.8693 77.2727 90.4261 75.6591 93.4489 74.5909C96.4716 73.5 99.8125 72.9545 103.472 72.9545C105.994 72.9545 108.506 73.25 111.006 73.8409C113.506 74.4318 115.79 75.4091 117.858 76.7727C119.926 78.1136 121.585 79.9432 122.835 82.2614C124.108 84.5795 124.744 87.4773 124.744 90.9545V126H112.881V118.807H112.472C111.722 120.261 110.665 121.625 109.301 122.898C107.96 124.148 106.267 125.159 104.222 125.932C102.199 126.682 99.8239 127.057 97.0966 127.057ZM100.301 117.989C102.778 117.989 104.926 117.5 106.744 116.523C108.563 115.523 109.96 114.205 110.937 112.568C111.937 110.932 112.437 109.148 112.437 107.216V101.045C112.051 101.364 111.392 101.659 110.46 101.932C109.551 102.205 108.528 102.443 107.392 102.648C106.256 102.852 105.131 103.034 104.017 103.193C102.903 103.352 101.938 103.489 101.119 103.602C99.2784 103.852 97.6307 104.261 96.1761 104.83C94.7216 105.398 93.5739 106.193 92.733 107.216C91.892 108.216 91.4716 109.511 91.4716 111.102C91.4716 113.375 92.3011 115.091 93.9602 116.25C95.6193 117.409 97.733 117.989 100.301 117.989ZM137.153 126V73.6364H149.119V82.3636H149.665C150.619 79.3409 152.256 77.0114 154.574 75.375C156.915 73.7159 159.585 72.8864 162.585 72.8864C163.267 72.8864 164.028 72.9205 164.869 72.9886C165.733 73.0341 166.449 73.1136 167.017 73.2273V84.5795C166.494 84.3977 165.665 84.2386 164.528 84.1023C163.415 83.9432 162.335 83.8636 161.29 83.8636C159.04 83.8636 157.017 84.3523 155.222 85.3295C153.449 86.2841 152.051 87.6136 151.028 89.3182C150.006 91.0227 149.494 92.9886 149.494 95.2159V126H137.153Z"
      class="fill"
    />
  </g>
  <defs>
    <clipPath id="clip0_30_241">
      <rect width="167" height="127" fill="white" />
    </clipPath>
  </defs>
</svg>
